<?xml version="1.0" encoding="UTF-8" standalone="no"?>
<svg
   x="0pt"
   y="0pt"
   width="520pt"
   height="520pt"
   viewBox="0 0 520 520"
   version="1.1"
   id="svg428"
   sodipodi:docname="XKCDFeed Icon.svg"
   inkscape:version="1.1 (c68e22c387, 2021-05-23)"
   xmlns:inkscape="http://www.inkscape.org/namespaces/inkscape"
   xmlns:sodipodi="http://sodipodi.sourceforge.net/DTD/sodipodi-0.dtd"
   xmlns:xlink="http://www.w3.org/1999/xlink"
   xmlns="http://www.w3.org/2000/svg"
   xmlns:svg="http://www.w3.org/2000/svg">
  <defs
     id="defs432">
    <path
       id="path3142"
       d="m 50.9659,340.213 c 0,0 22.6265,0 22.6265,0 0,0 25.8284,-42.578 25.8284,-42.578 0,0 25.1882,42.578 25.1882,42.578 0,0 24.974,0 24.974,0 0,0 -35.861,-57.88 -35.861,-57.88 0,0 32.873,-55.219 32.873,-55.219 0,0 -22.2,0 -22.2,0 0,0 -22.626,40.583 -22.626,40.583 0,0 -24.3344,-40.583 -24.3344,-40.583 0,0 -24.9745,0 -24.9745,0 0,0 34.7936,55.441 34.7936,55.441 0,0 -36.2878,57.658 -36.2878,57.658 z m 119.0051,0 c 0,0 20.919,0 20.919,0 0,0 0,-161.887 0,-161.887 0,0 -20.919,0 -20.919,0 0,0 0,161.887 0,161.887 z m 64.678,0 c 0,0 23.694,0 23.694,0 0,0 -42.905,-59.876 -42.905,-59.876 0,0 39.917,-53.223 39.917,-53.223 0,0 -22.414,0 -22.414,0 0,0 -40.13,54.554 -40.13,54.554 0,0 41.838,58.545 41.838,58.545 z m 88.695,1.996 c 15.155,0 25.188,-3.991 32.445,-8.87 0,0 0,-16.632 0,-16.632 -5.763,2.882 -15.369,7.539 -29.243,7.539 -21.346,0 -32.446,-11.531 -32.446,-38.808 0,0 0,-5.766 0,-5.766 0,-23.729 11.74,-36.369 30.311,-36.369 13.875,0 20.492,2.661 30.097,6.874 0,0 0,-17.962 0,-17.962 -7.257,-4.436 -15.582,-7.319 -29.884,-7.319 -29.457,0 -52.297,18.185 -52.297,57.659 0,0 0,3.77 0,3.77 0,37.478 19.852,55.884 51.017,55.884 z m 93.604,0 c 14.301,0 24.761,-4.435 31.165,-11.088 0,0 1.067,0 1.067,0 0,0 1.921,9.092 1.921,9.092 0,0 17.93,0 17.93,0 0,0 0,-161.887 0,-161.887 0,0 -21.132,0 -21.132,0 0,0 0,53.445 0,53.445 -5.123,-3.105 -13.875,-6.875 -27.109,-6.875 -27.963,0 -48.241,17.963 -48.241,59.433 0,0 0,2.883 0,2.883 0,41.248 23.266,54.997 44.399,54.997 z m 7.257,-17.297 c -17.93,0 -30.097,-8.871 -30.097,-38.587 0,0 0,-4.657 0,-4.657 0,-28.829 11.313,-38.587 29.884,-38.587 10.246,0 19.638,2.439 23.907,6.209 0,0 0,67.195 0,67.195 -4.482,3.548 -12.38,8.427 -23.694,8.427 z" />
    <path
       id="path3144"
       d="m 430.653,223.817 c 1.696,-3.757 3.023,-9.973 4.438,-13.443 3.503,-8.588 4.837,-12.167 6.337,-20.711 0.384,-2.185 0.762,-8.392 0.757,-10.599 -0.003,-1.285 -0.395,-5.109 -0.767,-6.801" />
    <path
       id="path3146"
       d="m 429.425,223.449 c -2.894,-1.626 -5.381,-2.866 -6.26,-3.387 -2.145,-1.273 -7.431,-3.851 -9.596,-5.128 -8.085,-4.769 -3.364,-1.933 -11.988,-7.876 -2.551,-1.757 -6.599,-4.192 -9.111,-5.999 -3.497,-2.515 -6.596,-5 -7.452,-4.454 -0.929,0.594 -5.386,25.843 -6.493,34.128 -0.947,7.09 -3.829,24.627 -4.9,29.535" />
    <path
       id="path3148"
       d="m 409.365,207.058 c -2.59,-1.268 -5.402,-2.836 -7.992,-4.12 -1.375,-0.682 -3.772,-1.891 -4.18,-2.404 -0.629,-0.792 -1.237,-2.959 -1.819,-4.528 -0.928,-2.499 -1.299,-4.848 -2.206,-7.354 -0.733,-2.026 -1.033,-3.489 -1.911,-5.454 -0.744,-1.664 -1.457,-3.074 -2.201,-4.746 -0.426,-0.958 -1.489,-3.506 -1.997,-4.635 0.388,-0.066 1.946,-0.034 2.396,-0.088 1.45,-0.173 2.52,-0.224 4.33,-0.694 0.806,-0.21 1.871,-0.549 2.538,-0.851 0.553,0.855 0.89,1.699 1.4,2.685 0.312,0.602 1.005,2.582 1.257,3.21 0.73,1.817 1.973,6.294 2.697,8.106 1.291,3.226 1.297,3.285 2.566,6.519 0.646,1.648 0.93,2.572 1.472,4.246 0.199,0.613 1.17,2.554 1.378,3.162 0.913,2.679 1.522,4.229 2.272,6.946 z" />
    <path
       id="path3150"
       d="m 390.784,190.205 c 0.042,1.269 0.172,2.367 1.395,3.161 0.828,0.538 2.214,0.574 3.107,0.018 0.561,-0.35 0.436,-1.274 0.22,-1.787 -0.226,-0.536 -0.376,-1.149 -0.692,-1.645 -0.338,-0.531 -0.767,-1.037 -1.249,-1.437 -0.43,-0.357 -0.76,-0.674 -1.401,-0.667 -0.764,0.009 -1.417,1.203 -1.38,2.357 z" />
    <path
       id="path3152"
       d="m 401.039,127.831 c -0.105,-3.874 4.234,-8.213 8.154,-10.53 7.713,-4.559 22.281,-9.46 32.378,-4.479 7.742,3.818 12.921,12.347 14.174,20.756 0.421,2.823 0.753,10.266 0.87,13.04 0.332,7.843 -3.653,14.086 -10.266,19.364 -8.671,6.923 -18.395,6.427 -27.254,3.201 -1.826,-0.665 -7.44,-4.981 -8.494,-6.657 -2.919,-4.64 -4.511,-8.552 -6.599,-14.051 -0.819,-2.156 -1.829,-5.657 -2.286,-7.961 -0.845,-4.251 -0.559,-8.36 -0.677,-12.683 z" />
    <path
       id="path3154"
       d="m 409.564,192.673 c 0.384,0.67 0.318,1.693 0.204,2.475 -0.183,1.261 -0.461,2.092 -1.203,3.1 -0.65,0.883 -1.086,1.378 -1.563,1.626 -1.246,0.647 -2.677,0.231 -3.243,0.017 -1.68,-0.637 -2.373,-1.62 -2.915,-3.422 -0.368,-1.224 -0.191,-1.987 0.29,-3.149 0.129,-0.311 0.162,-0.719 0.455,-0.933 0.544,-0.397 1.305,-0.209 1.907,-0.252 0.381,-0.027 0.913,-0.262 1.286,-0.379 0.334,-0.105 0.781,-0.317 1.022,-0.577 0.169,-0.181 0.124,-0.529 0.364,-0.648 1.53,-0.762 2.912,1.061 3.396,2.142 z" />
    <path
       id="path3156"
       d="m 459.029,165.57 c -0.979,-1.259 -2.501,-4.737 -2.889,-6.149 -1.069,-3.884 -1.587,-8.506 -3.343,-12.207 -0.942,-1.987 -1.688,-4.591 -3.572,-5.901 -3.596,-2.498 -7.947,-6.15 -12.422,-6.745 -5.472,-0.727 -11.112,1.884 -16.59,2.511 -3.408,0.39 -8.519,-1.197 -11.744,-2.302 -4.068,-1.392 -3.733,-5.194 -6.888,-7.228 5.989,1.95 8.931,5.844 15.172,5.837 7.519,-0.01 14.933,-5.12 22.178,-2.282 8.599,3.369 11.699,14.488 14.316,22.36 1.505,4.527 1.167,11.549 2.341,15.904" />
    <path
       id="path3158"
       d="m 409.385,196.633 c 1.439,1.024 2.959,1.895 4.446,2.834 3.703,2.336 5.303,3.119 8.284,4.514 2.462,1.152 5.269,2.345 6.328,2.816 2.462,1.097 4.422,1.924 6.935,2.872 2.15,0.812 3.62,1.471 5.812,2.312 0.629,0.242 2.152,0.819 2.831,0.382 1.92,-1.234 1.299,-6.965 1.22,-9.475 -0.169,-5.352 -0.731,-10.734 -1.605,-16.574 -0.488,-3.263 -1.771,-6.33 -2.31,-9.589 -1.185,2.138 -1.949,3.242 -2.725,4.765 -1.822,3.574 -3.351,7.236 -4.834,10.965 -1.236,3.111 -2.445,6.038 -3.711,8.929 -0.754,1.722 -1.451,3.696 -2.351,5.492 -0.288,0.577 -0.873,1.728 -1.563,1.901 -0.49,0.122 -1.826,-0.625 -2.26,-0.812 -1.395,-0.602 -4.782,-2.168 -6.126,-2.878 -4.016,-2.121 -5.59,-2.988 -9.889,-4.497" />
    <path
       id="path3160"
       d="m 404.237,124.447 c 8.159,2.707 15.615,2.128 24.147,2.135 2.111,0.002 4.084,-0.682 6.224,-0.326 2.647,0.44 5.208,2.521 7.481,3.863 2.099,1.24 4.492,2.173 6.297,3.854 6.483,6.036 6.362,15.346 4.708,23.458 -0.986,4.838 -2.197,11.29 -4.943,16.005" />
    <path
       id="path3162"
       d="m 445.796,173.784 c 3.846,-5.62 6.705,-18.747 7.001,-26.57 0.115,-3.029 -2.294,-8.426 -2.721,-11.415 -0.711,-4.983 -4.462,-10.239 -8.267,-14.357 -2.27,-2.457 -4.743,-3.083 -7.864,-3.678 -8.806,-1.679 -20.585,-3.522 -26.416,4.753 2.374,-4.812 7.499,-6.387 11.378,-7.502 2.125,-0.611 3.973,-2.061 6.073,-2.615 1.126,-0.296 2.443,0.336 3.605,0.316 4.628,-0.08 11.405,0.609 14.949,3.965 9.176,8.688 9.018,22.539 12.218,33.891" />
    <path
       id="path3164"
       d="m 407.634,121.249 c 4.676,3.419 15.181,3.277 20.844,2.893 1.986,-0.135 4.251,-0.955 6.204,-0.771 5.322,0.5 9.601,3.817 12.749,7.95 1.411,1.853 2.455,4 3.057,6.259 0.74,2.778 0.79,5.579 0.463,8.413 -0.533,4.627 -2.578,9.052 -3.572,13.597 -0.959,4.384 -3.188,10.114 -3.71,13.9" />
    <path
       id="path3166"
       d="m 423.77,113.824 c 0.579,-0.549 1.096,-0.126 1.757,0.099 1.396,0.474 2.877,0.865 4.337,1.09 5.37,0.83 10.293,0.833 14.159,5.234 1.189,1.354 2.33,2.477 2.257,4.365" />
    <path
       id="path3168"
       d="m 434.416,128.057 c -1.573,-0.396 -4.005,0.272 -5.641,0.464 -2.205,0.258 -4.432,0.264 -6.632,0.565 -2.353,0.321 -4.944,0.875 -7.321,0.775 -1.456,-0.062 -2.906,-0.669 -4.318,-0.968 -0.68,-0.144 -1.329,-0.008 -1.988,-0.29 -1.349,-0.578 -2.556,-1.866 -4.08,-1.732" />
    <path
       id="path3170"
       d="m 410.864,120.434 c 1.502,-2.315 5.528,-0.688 7.906,-0.815 5.545,-0.296 12.387,-0.579 17.67,1.292 2.595,0.919 4.862,2.706 7.151,4.191" />
    <path
       id="path3172"
       d="m 413.382,121.633 c 6.755,-0.987 14.573,0.464 20.442,3.804" />
    <path
       id="path3174"
       d="m 422.463,134.072 c 1.413,-1.052 3.232,-0.922 4.937,-1.221 3.292,-0.577 6.518,-1.342 9.765,-2.13" />
    <path
       id="path3176"
       d="m 452.324,158.921 c 1.368,1.679 0.089,3.643 -0.219,5.598 -0.564,3.577 -1.291,7.87 0.576,11.166" />
    <path
       id="path3178"
       d="m 456.205,135.137 c 1.646,3.112 1.321,6.955 1.509,10.371 0.244,4.417 0.806,8.845 1.105,13.265" />
    <path
       id="path3180"
       d="m 378.14,247.593 c 1.248,-4.09 -0.073,-13.623 -1.732,-26.977 -0.999,-8.045 -4.163,-24.071 -2.123,-24.087 2.62,-0.02 6.531,2.043 8.485,3.135 3.31,1.852 6.742,3.619 9.869,5.235 5.394,2.787 7.422,4.034 12.921,6.594 7.976,3.711 15.926,7.753 23.865,12.74" />
    <path
       id="path3182"
       d="m 160.421,93.0978 c 1.767,-0.3772 3.055,-0.7186 4.507,-1.0726 1.527,-0.3724 3.098,-0.8994 4.6,-1.3731 2.121,-0.6689 4.088,-1.368 6.187,-2.0865 3.55,-1.2156 6.989,-2.3147 10.54,-3.5296 3.298,-1.1284 6.669,-2.5676 9.915,-3.8462 3.801,-1.4979 7.75,-2.7099 11.534,-4.2224" />
    <path
       id="path3184"
       d="m 174.734,175.318 c -0.352,-5.754 -0.307,-9.237 -0.796,-14.724 -0.233,-2.616 0.172,-8.194 0.22,-10.832 0.156,-8.533 1.241,-15.541 5.241,-23.059" />
    <path
       id="path3186"
       d="m 174.734,175.318 c -0.352,-5.754 -0.307,-9.237 -0.796,-14.724 -0.233,-2.616 0.172,-8.194 0.22,-10.832 0.156,-8.533 1.241,-15.541 5.241,-23.059" />
    <path
       id="path3188"
       d="m 169.528,90.6521 c -2.07,2.1077 -3.054,10.6239 -2.61,14.2799 0.625,5.144 2.563,9.613 5.815,13.762 1.906,2.432 3.343,4.815 5.734,6.288 0.344,0.212 1.993,1.398 2.538,1.692 1.962,1.061 3.512,1.648 5.5,1.836 0.9,0.085 3.31,-0.015 4.195,-0.224 2.433,-0.576 4.007,-1.282 6.242,-2.769 3.71,-2.468 4.804,-3.609 6.698,-5.752 0,0 1.54,-1.956 1.54,-1.956 0.686,-1.098 1.512,-2.391 1.874,-3.158 0.928,-1.966 1.56,-3.576 2.236,-5.642 2,-6.116 2.023,-13.5848 -1.48,-19.1588 -2.19,-3.4836 -6.781,-6.8399 -9.992,-9.2905" />
    <path
       id="path3190"
       d="m 201.267,78.074 c -0.232,-1.0599 -0.77,-1.9561 -1.154,-2.9578 -0.721,-1.8764 -1.331,-3.6435 -2.723,-5.1686 -0.458,-0.5021 -0.536,-1.4151 -1.221,-1.7319 -0.382,-0.1768 -1.303,0.2762 -1.725,0.3305 -1.869,0.2405 -3.686,0.5564 -5.473,1.1738 -5.775,1.9947 -12.009,3.096 -17.551,5.6689 -1.057,0.4907 -2.222,1.0507 -3.334,1.3889 -0.595,0.1807 -1.482,0.2683 -1.866,0.8307 -0.098,0.1436 0.158,0.6381 0.225,0.7929 0.291,0.6662 0.402,1.4891 0.566,2.2006 0.714,3.0995 1.706,6.0973 2.201,9.219" />
    <path
       id="path3192"
       d="m 160.421,93.0978 c 1.767,-0.3772 3.055,-0.7186 4.507,-1.0726 1.527,-0.3724 3.098,-0.8994 4.6,-1.3731 2.121,-0.6689 4.088,-1.368 6.187,-2.0865 3.55,-1.2156 6.989,-2.3147 10.54,-3.5296 3.298,-1.1284 6.669,-2.5676 9.915,-3.8462 3.801,-1.4979 7.75,-2.7099 11.534,-4.2224" />
    <path
       id="path3194"
       d="m 169.528,90.6521 c -2.07,2.1077 -3.054,10.6239 -2.61,14.2799 0.625,5.144 2.563,9.613 5.815,13.762 1.906,2.432 3.343,4.815 5.734,6.288 0.344,0.212 1.993,1.398 2.538,1.692 1.962,1.061 3.512,1.648 5.5,1.836 0.9,0.085 3.31,-0.015 4.195,-0.224 2.433,-0.576 4.007,-1.282 6.242,-2.769 3.71,-2.468 4.804,-3.609 6.698,-5.752 0,0 1.54,-1.956 1.54,-1.956 0.686,-1.098 1.512,-2.391 1.874,-3.158 0.928,-1.966 1.56,-3.576 2.236,-5.642 2,-6.116 2.023,-13.5848 -1.48,-19.1588 -2.19,-3.4836 -6.781,-6.8399 -9.992,-9.2905" />
    <path
       id="path3196"
       d="m 201.267,78.074 c -0.232,-1.0599 -0.77,-1.9561 -1.154,-2.9578 -0.721,-1.8764 -1.331,-3.6435 -2.723,-5.1686 -0.458,-0.5021 -0.536,-1.4151 -1.221,-1.7319 -0.382,-0.1768 -1.303,0.2762 -1.725,0.3305 -1.869,0.2405 -3.686,0.5564 -5.473,1.1738 -5.775,1.9947 -12.009,3.096 -17.551,5.6689 -1.057,0.4907 -2.222,1.0507 -3.334,1.3889 -0.595,0.1807 -1.482,0.2683 -1.866,0.8307 -0.098,0.1436 0.158,0.6381 0.225,0.7929 0.291,0.6662 0.402,1.4891 0.566,2.2006 0.714,3.0995 1.706,6.0973 2.201,9.219" />
    <path
       id="path3198"
       d="m 171.349,189.418 c -0.547,-5.6 -3.806,-11.664 -6.659,-18.549 -0.791,-1.909 -2.638,-5.472 -3.462,-7.646 -0.847,-2.233 -1.351,-4.518 -0.66,-6.568 0,0 5.429,-10.314 7.352,-13.746 1.319,-2.355 3.558,-6.778 5.187,-8.939 2.003,-2.656 6.209,-7.264 6.573,-7.016 0.346,0.052 0.496,3.421 0.985,4.841 1.525,4.429 5.586,7.254 8.546,10.733 5.332,6.266 12.002,11.704 18.845,16.381 5.668,3.875 11.468,7.01 17.263,11.333 0.729,0.544 1.965,1.853 2.771,3.384" />
    <path
       id="path3200"
       d="m 191.344,222.824 c 1.553,-1.638 8.162,-9.511 12.974,-15.379 4.473,-5.455 10.653,-16.021 12.029,-17.964 0,0 3.246,-4.854 2.844,-6.2 -0.359,-1.204 -1.551,-1.717 -2.639,-1.909 -2.541,-0.45 -8.612,-1.053 -11.665,-1.311 -3.335,-0.282 -16.694,-1.143 -16.694,-1.143 -0.909,-0.093 -6.422,-0.706 -7.303,-0.926 -2.137,-0.535 -6.047,-2.076 -6.047,-2.783 0,-0.388 2.646,-0.411 4.031,-0.518 1.625,-0.126 9.83,-0.38 11.088,-0.422 8.07,-0.27 11.064,-0.342 17.927,-0.817 4.838,-0.335 10.872,-0.555 14.063,0.715 1.106,0.439 2.144,0.918 2.92,1.832 1.463,1.724 2.131,4.128 2.806,5.893 0.766,2.004 1.848,5.938 2.527,7.902 0.936,2.714 1.608,5.15 2.464,7.572 1.967,5.565 2.712,7.848 4.221,13.693 1.54,5.971 3.078,10.908 4.071,15.022" />
    <title
       id="title4-1">Text</title>
    <g
       id="2-4">
      <defs
         id="defs7-2">
        <path
           id="3-1"
           d="m 50.9659,340.213 c 0,0 22.6265,0 22.6265,0 0,0 25.8284,-42.578 25.8284,-42.578 0,0 25.1882,42.578 25.1882,42.578 0,0 24.974,0 24.974,0 0,0 -35.861,-57.88 -35.861,-57.88 0,0 32.873,-55.219 32.873,-55.219 0,0 -22.2,0 -22.2,0 0,0 -22.626,40.583 -22.626,40.583 0,0 -24.3344,-40.583 -24.3344,-40.583 0,0 -24.9745,0 -24.9745,0 0,0 34.7936,55.441 34.7936,55.441 0,0 -36.2878,57.658 -36.2878,57.658 z m 119.0051,0 c 0,0 20.919,0 20.919,0 0,0 0,-161.887 0,-161.887 0,0 -20.919,0 -20.919,0 0,0 0,161.887 0,161.887 z m 64.678,0 c 0,0 23.694,0 23.694,0 0,0 -42.905,-59.876 -42.905,-59.876 0,0 39.917,-53.223 39.917,-53.223 0,0 -22.414,0 -22.414,0 0,0 -40.13,54.554 -40.13,54.554 0,0 41.838,58.545 41.838,58.545 z m 88.695,1.996 c 15.155,0 25.188,-3.991 32.445,-8.87 0,0 0,-16.632 0,-16.632 -5.763,2.882 -15.369,7.539 -29.243,7.539 -21.346,0 -32.446,-11.531 -32.446,-38.808 0,0 0,-5.766 0,-5.766 0,-23.729 11.74,-36.369 30.311,-36.369 13.875,0 20.492,2.661 30.097,6.874 0,0 0,-17.962 0,-17.962 -7.257,-4.436 -15.582,-7.319 -29.884,-7.319 -29.457,0 -52.297,18.185 -52.297,57.659 0,0 0,3.77 0,3.77 0,37.478 19.852,55.884 51.017,55.884 z m 93.604,0 c 14.301,0 24.761,-4.435 31.165,-11.088 0,0 1.067,0 1.067,0 0,0 1.921,9.092 1.921,9.092 0,0 17.93,0 17.93,0 0,0 0,-161.887 0,-161.887 0,0 -21.132,0 -21.132,0 0,0 0,53.445 0,53.445 -5.123,-3.105 -13.875,-6.875 -27.109,-6.875 -27.963,0 -48.241,17.963 -48.241,59.433 0,0 0,2.883 0,2.883 0,41.248 23.266,54.997 44.399,54.997 z m 7.257,-17.297 c -17.93,0 -30.097,-8.871 -30.097,-38.587 0,0 0,-4.657 0,-4.657 0,-28.829 11.313,-38.587 29.884,-38.587 10.246,0 19.638,2.439 23.907,6.209 0,0 0,67.195 0,67.195 -4.482,3.548 -12.38,8.427 -23.694,8.427 z" />
      </defs>
      <use
         xlink:href="#3-1"
         style="opacity:1;fill:#000000;fill-opacity:1;fill-rule:nonzero;stroke:none"
         id="use9-4"
         x="0"
         y="0"
         width="100%"
         height="100%" />
    </g>
    <path
       id="path3207"
       d="m 50.9659,340.213 c 0,0 22.6265,0 22.6265,0 0,0 25.8284,-42.578 25.8284,-42.578 0,0 25.1882,42.578 25.1882,42.578 0,0 24.974,0 24.974,0 0,0 -35.861,-57.88 -35.861,-57.88 0,0 32.873,-55.219 32.873,-55.219 0,0 -22.2,0 -22.2,0 0,0 -22.626,40.583 -22.626,40.583 0,0 -24.3344,-40.583 -24.3344,-40.583 0,0 -24.9745,0 -24.9745,0 0,0 34.7936,55.441 34.7936,55.441 0,0 -36.2878,57.658 -36.2878,57.658 z m 119.0051,0 c 0,0 20.919,0 20.919,0 0,0 0,-161.887 0,-161.887 0,0 -20.919,0 -20.919,0 0,0 0,161.887 0,161.887 z m 64.678,0 c 0,0 23.694,0 23.694,0 0,0 -42.905,-59.876 -42.905,-59.876 0,0 39.917,-53.223 39.917,-53.223 0,0 -22.414,0 -22.414,0 0,0 -40.13,54.554 -40.13,54.554 0,0 41.838,58.545 41.838,58.545 z m 88.695,1.996 c 15.155,0 25.188,-3.991 32.445,-8.87 0,0 0,-16.632 0,-16.632 -5.763,2.882 -15.369,7.539 -29.243,7.539 -21.346,0 -32.446,-11.531 -32.446,-38.808 0,0 0,-5.766 0,-5.766 0,-23.729 11.74,-36.369 30.311,-36.369 13.875,0 20.492,2.661 30.097,6.874 0,0 0,-17.962 0,-17.962 -7.257,-4.436 -15.582,-7.319 -29.884,-7.319 -29.457,0 -52.297,18.185 -52.297,57.659 0,0 0,3.77 0,3.77 0,37.478 19.852,55.884 51.017,55.884 z m 93.604,0 c 14.301,0 24.761,-4.435 31.165,-11.088 0,0 1.067,0 1.067,0 0,0 1.921,9.092 1.921,9.092 0,0 17.93,0 17.93,0 0,0 0,-161.887 0,-161.887 0,0 -21.132,0 -21.132,0 0,0 0,53.445 0,53.445 -5.123,-3.105 -13.875,-6.875 -27.109,-6.875 -27.963,0 -48.241,17.963 -48.241,59.433 0,0 0,2.883 0,2.883 0,41.248 23.266,54.997 44.399,54.997 z m 7.257,-17.297 c -17.93,0 -30.097,-8.871 -30.097,-38.587 0,0 0,-4.657 0,-4.657 0,-28.829 11.313,-38.587 29.884,-38.587 10.246,0 19.638,2.439 23.907,6.209 0,0 0,67.195 0,67.195 -4.482,3.548 -12.38,8.427 -23.694,8.427 z" />
    <title
       id="title19-3">Path</title>
    <g
       id="5-8">
      <defs
         id="defs22-8">
        <path
           id="6-2"
           d="m 430.653,223.817 c 1.696,-3.757 3.023,-9.973 4.438,-13.443 3.503,-8.588 4.837,-12.167 6.337,-20.711 0.384,-2.185 0.762,-8.392 0.757,-10.599 -0.003,-1.285 -0.395,-5.109 -0.767,-6.801" />
      </defs>
      <use
         xlink:href="#6-2"
         style="opacity:0;fill:#000000;fill-opacity:1;fill-rule:nonzero;stroke:none"
         id="use24-1"
         x="0"
         y="0"
         width="100%"
         height="100%" />
      <use
         xlink:href="#6-2"
         style="opacity:1;fill:none;stroke:#000000;stroke-width:4;stroke-linecap:round;stroke-linejoin:miter;stroke-miterlimit:10;stroke-opacity:1"
         id="use26-0"
         x="0"
         y="0"
         width="100%"
         height="100%" />
    </g>
    <path
       id="path3215"
       d="m 430.653,223.817 c 1.696,-3.757 3.023,-9.973 4.438,-13.443 3.503,-8.588 4.837,-12.167 6.337,-20.711 0.384,-2.185 0.762,-8.392 0.757,-10.599 -0.003,-1.285 -0.395,-5.109 -0.767,-6.801" />
    <title
       id="title33-5">Shape 37</title>
    <g
       id="7-9">
      <defs
         id="defs36-1">
        <path
           id="8-5"
           d="m 429.425,223.449 c -2.894,-1.626 -5.381,-2.866 -6.26,-3.387 -2.145,-1.273 -7.431,-3.851 -9.596,-5.128 -8.085,-4.769 -3.364,-1.933 -11.988,-7.876 -2.551,-1.757 -6.599,-4.192 -9.111,-5.999 -3.497,-2.515 -6.596,-5 -7.452,-4.454 -0.929,0.594 -5.386,25.843 -6.493,34.128 -0.947,7.09 -3.829,24.627 -4.9,29.535" />
      </defs>
      <use
         xlink:href="#8-5"
         style="opacity:0;fill:#000000;fill-opacity:1;fill-rule:evenodd;stroke:none"
         id="use38-6"
         x="0"
         y="0"
         width="100%"
         height="100%" />
      <use
         xlink:href="#8-5"
         style="opacity:1;fill:none;stroke:#000000;stroke-width:4;stroke-linecap:round;stroke-linejoin:round;stroke-miterlimit:10;stroke-opacity:1"
         id="use40-3"
         x="0"
         y="0"
         width="100%"
         height="100%" />
    </g>
    <path
       id="path3223"
       d="m 429.425,223.449 c -2.894,-1.626 -5.381,-2.866 -6.26,-3.387 -2.145,-1.273 -7.431,-3.851 -9.596,-5.128 -8.085,-4.769 -3.364,-1.933 -11.988,-7.876 -2.551,-1.757 -6.599,-4.192 -9.111,-5.999 -3.497,-2.515 -6.596,-5 -7.452,-4.454 -0.929,0.594 -5.386,25.843 -6.493,34.128 -0.947,7.09 -3.829,24.627 -4.9,29.535" />
    <title
       id="title47-6">Path</title>
    <g
       id="9-5">
      <defs
         id="defs50-1">
        <path
           id="10-8"
           d="m 409.365,207.058 c -2.59,-1.268 -5.402,-2.836 -7.992,-4.12 -1.375,-0.682 -3.772,-1.891 -4.18,-2.404 -0.629,-0.792 -1.237,-2.959 -1.819,-4.528 -0.928,-2.499 -1.299,-4.848 -2.206,-7.354 -0.733,-2.026 -1.033,-3.489 -1.911,-5.454 -0.744,-1.664 -1.457,-3.074 -2.201,-4.746 -0.426,-0.958 -1.489,-3.506 -1.997,-4.635 0.388,-0.066 1.946,-0.034 2.396,-0.088 1.45,-0.173 2.52,-0.224 4.33,-0.694 0.806,-0.21 1.871,-0.549 2.538,-0.851 0.553,0.855 0.89,1.699 1.4,2.685 0.312,0.602 1.005,2.582 1.257,3.21 0.73,1.817 1.973,6.294 2.697,8.106 1.291,3.226 1.297,3.285 2.566,6.519 0.646,1.648 0.93,2.572 1.472,4.246 0.199,0.613 1.17,2.554 1.378,3.162 0.913,2.679 1.522,4.229 2.272,6.946 z" />
      </defs>
      <use
         xlink:href="#10-8"
         style="opacity:0.62;fill:#000000;fill-opacity:1;fill-rule:nonzero;stroke:none"
         id="use52-3"
         x="0"
         y="0"
         width="100%"
         height="100%" />
      <use
         xlink:href="#10-8"
         style="opacity:1;fill:none;stroke:#000000;stroke-width:2.5;stroke-linecap:round;stroke-linejoin:round;stroke-miterlimit:10;stroke-opacity:1"
         id="use54-0"
         x="0"
         y="0"
         width="100%"
         height="100%" />
    </g>
    <path
       id="path3231"
       d="m 409.365,207.058 c -2.59,-1.268 -5.402,-2.836 -7.992,-4.12 -1.375,-0.682 -3.772,-1.891 -4.18,-2.404 -0.629,-0.792 -1.237,-2.959 -1.819,-4.528 -0.928,-2.499 -1.299,-4.848 -2.206,-7.354 -0.733,-2.026 -1.033,-3.489 -1.911,-5.454 -0.744,-1.664 -1.457,-3.074 -2.201,-4.746 -0.426,-0.958 -1.489,-3.506 -1.997,-4.635 0.388,-0.066 1.946,-0.034 2.396,-0.088 1.45,-0.173 2.52,-0.224 4.33,-0.694 0.806,-0.21 1.871,-0.549 2.538,-0.851 0.553,0.855 0.89,1.699 1.4,2.685 0.312,0.602 1.005,2.582 1.257,3.21 0.73,1.817 1.973,6.294 2.697,8.106 1.291,3.226 1.297,3.285 2.566,6.519 0.646,1.648 0.93,2.572 1.472,4.246 0.199,0.613 1.17,2.554 1.378,3.162 0.913,2.679 1.522,4.229 2.272,6.946 z" />
    <title
       id="title61-6">Path</title>
    <g
       id="11-0">
      <defs
         id="defs64-4">
        <path
           id="12-4"
           d="m 390.784,190.205 c 0.042,1.269 0.172,2.367 1.395,3.161 0.828,0.538 2.214,0.574 3.107,0.018 0.561,-0.35 0.436,-1.274 0.22,-1.787 -0.226,-0.536 -0.376,-1.149 -0.692,-1.645 -0.338,-0.531 -0.767,-1.037 -1.249,-1.437 -0.43,-0.357 -0.76,-0.674 -1.401,-0.667 -0.764,0.009 -1.417,1.203 -1.38,2.357 z" />
      </defs>
      <use
         xlink:href="#12-4"
         style="opacity:1;fill:#000000;fill-opacity:1;fill-rule:nonzero;stroke:none"
         id="use66-5"
         x="0"
         y="0"
         width="100%"
         height="100%" />
      <use
         xlink:href="#12-4"
         style="opacity:1;fill:none;stroke:#000000;stroke-width:2.5;stroke-linecap:round;stroke-linejoin:round;stroke-miterlimit:10;stroke-opacity:1"
         id="use68-3"
         x="0"
         y="0"
         width="100%"
         height="100%" />
    </g>
    <path
       id="path3239"
       d="m 390.784,190.205 c 0.042,1.269 0.172,2.367 1.395,3.161 0.828,0.538 2.214,0.574 3.107,0.018 0.561,-0.35 0.436,-1.274 0.22,-1.787 -0.226,-0.536 -0.376,-1.149 -0.692,-1.645 -0.338,-0.531 -0.767,-1.037 -1.249,-1.437 -0.43,-0.357 -0.76,-0.674 -1.401,-0.667 -0.764,0.009 -1.417,1.203 -1.38,2.357 z" />
    <title
       id="title75-0">Path</title>
    <g
       id="13-6">
      <defs
         id="defs78-8">
        <path
           id="14-4"
           d="m 409.564,192.673 c 0.384,0.67 0.318,1.693 0.204,2.475 -0.183,1.261 -0.461,2.092 -1.203,3.1 -0.65,0.883 -1.086,1.378 -1.563,1.626 -1.246,0.647 -2.677,0.231 -3.243,0.017 -1.68,-0.637 -2.373,-1.62 -2.915,-3.422 -0.368,-1.224 -0.191,-1.987 0.29,-3.149 0.129,-0.311 0.162,-0.719 0.455,-0.933 0.544,-0.397 1.305,-0.209 1.907,-0.252 0.381,-0.027 0.913,-0.262 1.286,-0.379 0.334,-0.105 0.781,-0.317 1.022,-0.577 0.169,-0.181 0.124,-0.529 0.364,-0.648 1.53,-0.762 2.912,1.061 3.396,2.142 z" />
      </defs>
      <use
         xlink:href="#14-4"
         style="opacity:1;fill:#000000;fill-opacity:1;fill-rule:nonzero;stroke:none"
         id="use80-5"
         x="0"
         y="0"
         width="100%"
         height="100%" />
      <use
         xlink:href="#14-4"
         style="opacity:1;fill:none;stroke:#000000;stroke-width:2.5;stroke-linecap:round;stroke-linejoin:round;stroke-miterlimit:10;stroke-opacity:1"
         id="use82-1"
         x="0"
         y="0"
         width="100%"
         height="100%" />
    </g>
    <path
       id="path3247"
       d="m 409.564,192.673 c 0.384,0.67 0.318,1.693 0.204,2.475 -0.183,1.261 -0.461,2.092 -1.203,3.1 -0.65,0.883 -1.086,1.378 -1.563,1.626 -1.246,0.647 -2.677,0.231 -3.243,0.017 -1.68,-0.637 -2.373,-1.62 -2.915,-3.422 -0.368,-1.224 -0.191,-1.987 0.29,-3.149 0.129,-0.311 0.162,-0.719 0.455,-0.933 0.544,-0.397 1.305,-0.209 1.907,-0.252 0.381,-0.027 0.913,-0.262 1.286,-0.379 0.334,-0.105 0.781,-0.317 1.022,-0.577 0.169,-0.181 0.124,-0.529 0.364,-0.648 1.53,-0.762 2.912,1.061 3.396,2.142 z" />
    <title
       id="title89-4">Path</title>
    <g
       id="15-7">
      <defs
         id="defs92-6">
        <path
           id="16-3"
           d="m 409.385,196.633 c 1.439,1.024 2.959,1.895 4.446,2.834 3.703,2.336 5.303,3.119 8.284,4.514 2.462,1.152 5.269,2.345 6.328,2.816 2.462,1.097 4.422,1.924 6.935,2.872 2.15,0.812 3.62,1.471 5.812,2.312 0.629,0.242 2.152,0.819 2.831,0.382 1.92,-1.234 1.299,-6.965 1.22,-9.475 -0.169,-5.352 -0.731,-10.734 -1.605,-16.574 -0.488,-3.263 -1.771,-6.33 -2.31,-9.589 -1.185,2.138 -1.949,3.242 -2.725,4.765 -1.822,3.574 -3.351,7.236 -4.834,10.965 -1.236,3.111 -2.445,6.038 -3.711,8.929 -0.754,1.722 -1.451,3.696 -2.351,5.492 -0.288,0.577 -0.873,1.728 -1.563,1.901 -0.49,0.122 -1.826,-0.625 -2.26,-0.812 -1.395,-0.602 -4.782,-2.168 -6.126,-2.878 -4.016,-2.121 -5.59,-2.988 -9.889,-4.497" />
      </defs>
      <use
         xlink:href="#16-3"
         style="opacity:0;fill:#000000;fill-opacity:1;fill-rule:nonzero;stroke:none"
         id="use94-4"
         x="0"
         y="0"
         width="100%"
         height="100%" />
      <use
         xlink:href="#16-3"
         style="opacity:1;fill:none;stroke:#000000;stroke-width:4;stroke-linecap:round;stroke-linejoin:round;stroke-miterlimit:10;stroke-opacity:1"
         id="use96-5"
         x="0"
         y="0"
         width="100%"
         height="100%" />
    </g>
    <path
       id="path3255"
       d="m 409.385,196.633 c 1.439,1.024 2.959,1.895 4.446,2.834 3.703,2.336 5.303,3.119 8.284,4.514 2.462,1.152 5.269,2.345 6.328,2.816 2.462,1.097 4.422,1.924 6.935,2.872 2.15,0.812 3.62,1.471 5.812,2.312 0.629,0.242 2.152,0.819 2.831,0.382 1.92,-1.234 1.299,-6.965 1.22,-9.475 -0.169,-5.352 -0.731,-10.734 -1.605,-16.574 -0.488,-3.263 -1.771,-6.33 -2.31,-9.589 -1.185,2.138 -1.949,3.242 -2.725,4.765 -1.822,3.574 -3.351,7.236 -4.834,10.965 -1.236,3.111 -2.445,6.038 -3.711,8.929 -0.754,1.722 -1.451,3.696 -2.351,5.492 -0.288,0.577 -0.873,1.728 -1.563,1.901 -0.49,0.122 -1.826,-0.625 -2.26,-0.812 -1.395,-0.602 -4.782,-2.168 -6.126,-2.878 -4.016,-2.121 -5.59,-2.988 -9.889,-4.497" />
    <title
       id="title103-4">Path</title>
    <g
       id="17-6">
      <defs
         id="defs106-3">
        <path
           id="18-8"
           d="m 401.039,127.831 c -0.105,-3.874 4.234,-8.213 8.154,-10.53 7.713,-4.559 22.281,-9.46 32.378,-4.479 7.742,3.818 12.921,12.347 14.174,20.756 0.421,2.823 0.753,10.266 0.87,13.04 0.332,7.843 -3.653,14.086 -10.266,19.364 -8.671,6.923 -18.395,6.427 -27.254,3.201 -1.826,-0.665 -7.44,-4.981 -8.494,-6.657 -2.919,-4.64 -4.511,-8.552 -6.599,-14.051 -0.819,-2.156 -1.829,-5.657 -2.286,-7.961 -0.845,-4.251 -0.559,-8.36 -0.677,-12.683 z" />
      </defs>
      <use
         xlink:href="#18-8"
         style="opacity:0;fill:#000000;fill-opacity:1;fill-rule:nonzero;stroke:none"
         id="use108-0"
         x="0"
         y="0"
         width="100%"
         height="100%" />
      <use
         xlink:href="#18-8"
         style="opacity:1;fill:none;stroke:#000000;stroke-width:5;stroke-linecap:round;stroke-linejoin:round;stroke-miterlimit:10;stroke-opacity:1"
         id="use110-9"
         x="0"
         y="0"
         width="100%"
         height="100%" />
    </g>
    <path
       id="path3263"
       d="m 401.039,127.831 c -0.105,-3.874 4.234,-8.213 8.154,-10.53 7.713,-4.559 22.281,-9.46 32.378,-4.479 7.742,3.818 12.921,12.347 14.174,20.756 0.421,2.823 0.753,10.266 0.87,13.04 0.332,7.843 -3.653,14.086 -10.266,19.364 -8.671,6.923 -18.395,6.427 -27.254,3.201 -1.826,-0.665 -7.44,-4.981 -8.494,-6.657 -2.919,-4.64 -4.511,-8.552 -6.599,-14.051 -0.819,-2.156 -1.829,-5.657 -2.286,-7.961 -0.845,-4.251 -0.559,-8.36 -0.677,-12.683 z" />
    <title
       id="title119-3">Path</title>
    <g
       id="20-0">
      <defs
         id="defs122-3">
        <path
           id="21-6"
           d="m 459.029,165.57 c -0.979,-1.259 -2.501,-4.737 -2.889,-6.149 -1.069,-3.884 -1.587,-8.506 -3.343,-12.207 -0.942,-1.987 -1.688,-4.591 -3.572,-5.901 -3.596,-2.498 -7.947,-6.15 -12.422,-6.745 -5.472,-0.727 -11.112,1.884 -16.59,2.511 -3.408,0.39 -8.519,-1.197 -11.744,-2.302 -4.068,-1.392 -3.733,-5.194 -6.888,-7.228 5.989,1.95 8.931,5.844 15.172,5.837 7.519,-0.01 14.933,-5.12 22.178,-2.282 8.599,3.369 11.699,14.488 14.316,22.36 1.505,4.527 1.167,11.549 2.341,15.904" />
      </defs>
      <use
         xlink:href="#21-6"
         style="opacity:0;fill:#000000;fill-opacity:1;fill-rule:nonzero;stroke:none"
         id="use124-0"
         x="0"
         y="0"
         width="100%"
         height="100%" />
      <use
         xlink:href="#21-6"
         style="opacity:1;fill:none;stroke:#000000;stroke-width:4.5;stroke-linecap:round;stroke-linejoin:round;stroke-miterlimit:10;stroke-opacity:1"
         id="use126-3"
         x="0"
         y="0"
         width="100%"
         height="100%" />
    </g>
    <path
       id="path3271"
       d="m 459.029,165.57 c -0.979,-1.259 -2.501,-4.737 -2.889,-6.149 -1.069,-3.884 -1.587,-8.506 -3.343,-12.207 -0.942,-1.987 -1.688,-4.591 -3.572,-5.901 -3.596,-2.498 -7.947,-6.15 -12.422,-6.745 -5.472,-0.727 -11.112,1.884 -16.59,2.511 -3.408,0.39 -8.519,-1.197 -11.744,-2.302 -4.068,-1.392 -3.733,-5.194 -6.888,-7.228 5.989,1.95 8.931,5.844 15.172,5.837 7.519,-0.01 14.933,-5.12 22.178,-2.282 8.599,3.369 11.699,14.488 14.316,22.36 1.505,4.527 1.167,11.549 2.341,15.904" />
    <title
       id="title133-8">Path</title>
    <g
       id="22-7">
      <defs
         id="defs136-6">
        <path
           id="23-9"
           d="m 404.237,124.447 c 8.159,2.707 15.615,2.128 24.147,2.135 2.111,0.002 4.084,-0.682 6.224,-0.326 2.647,0.44 5.208,2.521 7.481,3.863 2.099,1.24 4.492,2.173 6.297,3.854 6.483,6.036 6.362,15.346 4.708,23.458 -0.986,4.838 -2.197,11.29 -4.943,16.005" />
      </defs>
      <use
         xlink:href="#23-9"
         style="opacity:0;fill:#000000;fill-opacity:1;fill-rule:nonzero;stroke:none"
         id="use138-8"
         x="0"
         y="0"
         width="100%"
         height="100%" />
      <use
         xlink:href="#23-9"
         style="opacity:1;fill:none;stroke:#000000;stroke-width:4.5;stroke-linecap:round;stroke-linejoin:round;stroke-miterlimit:10;stroke-opacity:1"
         id="use140-6"
         x="0"
         y="0"
         width="100%"
         height="100%" />
    </g>
    <path
       id="path3279"
       d="m 404.237,124.447 c 8.159,2.707 15.615,2.128 24.147,2.135 2.111,0.002 4.084,-0.682 6.224,-0.326 2.647,0.44 5.208,2.521 7.481,3.863 2.099,1.24 4.492,2.173 6.297,3.854 6.483,6.036 6.362,15.346 4.708,23.458 -0.986,4.838 -2.197,11.29 -4.943,16.005" />
    <title
       id="title147-5">Path</title>
    <g
       id="24-7">
      <defs
         id="defs150-6">
        <path
           id="25-3"
           d="m 407.634,121.249 c 4.676,3.419 15.181,3.277 20.844,2.893 1.986,-0.135 4.251,-0.955 6.204,-0.771 5.322,0.5 9.601,3.817 12.749,7.95 1.411,1.853 2.455,4 3.057,6.259 0.74,2.778 0.79,5.579 0.463,8.413 -0.533,4.627 -2.578,9.052 -3.572,13.597 -0.959,4.384 -3.188,10.114 -3.71,13.9" />
      </defs>
      <use
         xlink:href="#25-3"
         style="opacity:0;fill:#000000;fill-opacity:1;fill-rule:nonzero;stroke:none"
         id="use152-7"
         x="0"
         y="0"
         width="100%"
         height="100%" />
      <use
         xlink:href="#25-3"
         style="opacity:1;fill:none;stroke:#000000;stroke-width:4.5;stroke-linecap:round;stroke-linejoin:round;stroke-miterlimit:10;stroke-opacity:1"
         id="use154-6"
         x="0"
         y="0"
         width="100%"
         height="100%" />
    </g>
    <path
       id="path3287"
       d="m 407.634,121.249 c 4.676,3.419 15.181,3.277 20.844,2.893 1.986,-0.135 4.251,-0.955 6.204,-0.771 5.322,0.5 9.601,3.817 12.749,7.95 1.411,1.853 2.455,4 3.057,6.259 0.74,2.778 0.79,5.579 0.463,8.413 -0.533,4.627 -2.578,9.052 -3.572,13.597 -0.959,4.384 -3.188,10.114 -3.71,13.9" />
    <title
       id="title161-0">Path</title>
    <g
       id="26-8">
      <defs
         id="defs164-8">
        <path
           id="27-9"
           d="m 445.796,173.784 c 3.846,-5.62 6.705,-18.747 7.001,-26.57 0.115,-3.029 -2.294,-8.426 -2.721,-11.415 -0.711,-4.983 -4.462,-10.239 -8.267,-14.357 -2.27,-2.457 -4.743,-3.083 -7.864,-3.678 -8.806,-1.679 -20.585,-3.522 -26.416,4.753 2.374,-4.812 7.499,-6.387 11.378,-7.502 2.125,-0.611 3.973,-2.061 6.073,-2.615 1.126,-0.296 2.443,0.336 3.605,0.316 4.628,-0.08 11.405,0.609 14.949,3.965 9.176,8.688 9.018,22.539 12.218,33.891" />
      </defs>
      <use
         xlink:href="#27-9"
         style="opacity:0;fill:#000000;fill-opacity:1;fill-rule:nonzero;stroke:none"
         id="use166-1"
         x="0"
         y="0"
         width="100%"
         height="100%" />
      <use
         xlink:href="#27-9"
         style="opacity:1;fill:none;stroke:#000000;stroke-width:4.5;stroke-linecap:round;stroke-linejoin:round;stroke-miterlimit:10;stroke-opacity:1"
         id="use168-4"
         x="0"
         y="0"
         width="100%"
         height="100%" />
    </g>
    <path
       id="path3295"
       d="m 445.796,173.784 c 3.846,-5.62 6.705,-18.747 7.001,-26.57 0.115,-3.029 -2.294,-8.426 -2.721,-11.415 -0.711,-4.983 -4.462,-10.239 -8.267,-14.357 -2.27,-2.457 -4.743,-3.083 -7.864,-3.678 -8.806,-1.679 -20.585,-3.522 -26.416,4.753 2.374,-4.812 7.499,-6.387 11.378,-7.502 2.125,-0.611 3.973,-2.061 6.073,-2.615 1.126,-0.296 2.443,0.336 3.605,0.316 4.628,-0.08 11.405,0.609 14.949,3.965 9.176,8.688 9.018,22.539 12.218,33.891" />
    <title
       id="title175-6">Path</title>
    <g
       id="28-7">
      <defs
         id="defs178-7">
        <path
           id="29-0"
           d="m 434.416,128.057 c -1.573,-0.396 -4.005,0.272 -5.641,0.464 -2.205,0.258 -4.432,0.264 -6.632,0.565 -2.353,0.321 -4.944,0.875 -7.321,0.775 -1.456,-0.062 -2.906,-0.669 -4.318,-0.968 -0.68,-0.144 -1.329,-0.008 -1.988,-0.29 -1.349,-0.578 -2.556,-1.866 -4.08,-1.732" />
      </defs>
      <use
         xlink:href="#29-0"
         style="opacity:0;fill:#000000;fill-opacity:1;fill-rule:nonzero;stroke:none"
         id="use180-0"
         x="0"
         y="0"
         width="100%"
         height="100%" />
      <use
         xlink:href="#29-0"
         style="opacity:1;fill:none;stroke:#000000;stroke-width:4.5;stroke-linecap:round;stroke-linejoin:round;stroke-miterlimit:10;stroke-opacity:1"
         id="use182-9"
         x="0"
         y="0"
         width="100%"
         height="100%" />
    </g>
    <path
       id="path3303"
       d="m 434.416,128.057 c -1.573,-0.396 -4.005,0.272 -5.641,0.464 -2.205,0.258 -4.432,0.264 -6.632,0.565 -2.353,0.321 -4.944,0.875 -7.321,0.775 -1.456,-0.062 -2.906,-0.669 -4.318,-0.968 -0.68,-0.144 -1.329,-0.008 -1.988,-0.29 -1.349,-0.578 -2.556,-1.866 -4.08,-1.732" />
    <title
       id="title189-0">Path</title>
    <g
       id="30-4">
      <defs
         id="defs192-6">
        <path
           id="31-5"
           d="m 423.77,113.824 c 0.579,-0.549 1.096,-0.126 1.757,0.099 1.396,0.474 2.877,0.865 4.337,1.09 5.37,0.83 10.293,0.833 14.159,5.234 1.189,1.354 2.33,2.477 2.257,4.365" />
      </defs>
      <use
         xlink:href="#31-5"
         style="opacity:0;fill:#000000;fill-opacity:1;fill-rule:nonzero;stroke:none"
         id="use194-6"
         x="0"
         y="0"
         width="100%"
         height="100%" />
      <use
         xlink:href="#31-5"
         style="opacity:1;fill:none;stroke:#000000;stroke-width:4.5;stroke-linecap:round;stroke-linejoin:round;stroke-miterlimit:10;stroke-opacity:1"
         id="use196-8"
         x="0"
         y="0"
         width="100%"
         height="100%" />
    </g>
    <path
       id="path3311"
       d="m 423.77,113.824 c 0.579,-0.549 1.096,-0.126 1.757,0.099 1.396,0.474 2.877,0.865 4.337,1.09 5.37,0.83 10.293,0.833 14.159,5.234 1.189,1.354 2.33,2.477 2.257,4.365" />
    <title
       id="title203-0">Path</title>
    <g
       id="32-8">
      <defs
         id="defs206-5">
        <path
           id="33-9"
           d="m 410.864,120.434 c 1.502,-2.315 5.528,-0.688 7.906,-0.815 5.545,-0.296 12.387,-0.579 17.67,1.292 2.595,0.919 4.862,2.706 7.151,4.191" />
      </defs>
      <use
         xlink:href="#33-9"
         style="opacity:0;fill:#000000;fill-opacity:1;fill-rule:nonzero;stroke:none"
         id="use208-1"
         x="0"
         y="0"
         width="100%"
         height="100%" />
      <use
         xlink:href="#33-9"
         style="opacity:1;fill:none;stroke:#000000;stroke-width:4.5;stroke-linecap:round;stroke-linejoin:round;stroke-miterlimit:10;stroke-opacity:1"
         id="use210-0"
         x="0"
         y="0"
         width="100%"
         height="100%" />
    </g>
    <path
       id="path3319"
       d="m 410.864,120.434 c 1.502,-2.315 5.528,-0.688 7.906,-0.815 5.545,-0.296 12.387,-0.579 17.67,1.292 2.595,0.919 4.862,2.706 7.151,4.191" />
    <title
       id="title217-8">Path</title>
    <g
       id="34-5">
      <defs
         id="defs220-7">
        <path
           id="35-1"
           d="m 413.382,121.633 c 6.755,-0.987 14.573,0.464 20.442,3.804" />
      </defs>
      <use
         xlink:href="#35-1"
         style="opacity:0;fill:#000000;fill-opacity:1;fill-rule:nonzero;stroke:none"
         id="use222-1"
         x="0"
         y="0"
         width="100%"
         height="100%" />
      <use
         xlink:href="#35-1"
         style="opacity:1;fill:none;stroke:#000000;stroke-width:4.5;stroke-linecap:round;stroke-linejoin:round;stroke-miterlimit:10;stroke-opacity:1"
         id="use224-2"
         x="0"
         y="0"
         width="100%"
         height="100%" />
    </g>
    <path
       id="path3327"
       d="m 413.382,121.633 c 6.755,-0.987 14.573,0.464 20.442,3.804" />
    <title
       id="title231-0">Path</title>
    <g
       id="36-7">
      <defs
         id="defs234-9">
        <path
           id="37-2"
           d="m 422.463,134.072 c 1.413,-1.052 3.232,-0.922 4.937,-1.221 3.292,-0.577 6.518,-1.342 9.765,-2.13" />
      </defs>
      <use
         xlink:href="#37-2"
         style="opacity:0;fill:#000000;fill-opacity:1;fill-rule:nonzero;stroke:none"
         id="use236-7"
         x="0"
         y="0"
         width="100%"
         height="100%" />
      <use
         xlink:href="#37-2"
         style="opacity:1;fill:none;stroke:#000000;stroke-width:4.5;stroke-linecap:round;stroke-linejoin:round;stroke-miterlimit:10;stroke-opacity:1"
         id="use238-5"
         x="0"
         y="0"
         width="100%"
         height="100%" />
    </g>
    <path
       id="path3335"
       d="m 422.463,134.072 c 1.413,-1.052 3.232,-0.922 4.937,-1.221 3.292,-0.577 6.518,-1.342 9.765,-2.13" />
    <title
       id="title245-7">Path</title>
    <g
       id="38-7">
      <defs
         id="defs248-5">
        <path
           id="39-1"
           d="m 456.205,135.137 c 1.646,3.112 1.321,6.955 1.509,10.371 0.244,4.417 0.806,8.845 1.105,13.265" />
      </defs>
      <use
         xlink:href="#39-1"
         style="opacity:0;fill:#000000;fill-opacity:1;fill-rule:nonzero;stroke:none"
         id="use250-6"
         x="0"
         y="0"
         width="100%"
         height="100%" />
      <use
         xlink:href="#39-1"
         style="opacity:1;fill:none;stroke:#000000;stroke-width:4.5;stroke-linecap:round;stroke-linejoin:round;stroke-miterlimit:10;stroke-opacity:1"
         id="use252-3"
         x="0"
         y="0"
         width="100%"
         height="100%" />
    </g>
    <path
       id="path3343"
       d="m 456.205,135.137 c 1.646,3.112 1.321,6.955 1.509,10.371 0.244,4.417 0.806,8.845 1.105,13.265" />
    <title
       id="title259-8">Path</title>
    <g
       id="40-8">
      <defs
         id="defs262-5">
        <path
           id="41-5"
           d="m 452.324,158.921 c 1.368,1.679 0.089,3.643 -0.219,5.598 -0.564,3.577 -1.291,7.87 0.576,11.166" />
      </defs>
      <use
         xlink:href="#41-5"
         style="opacity:0;fill:#000000;fill-opacity:1;fill-rule:nonzero;stroke:none"
         id="use264-6"
         x="0"
         y="0"
         width="100%"
         height="100%" />
      <use
         xlink:href="#41-5"
         style="opacity:1;fill:none;stroke:#000000;stroke-width:4.5;stroke-linecap:round;stroke-linejoin:round;stroke-miterlimit:10;stroke-opacity:1"
         id="use266-7"
         x="0"
         y="0"
         width="100%"
         height="100%" />
    </g>
    <path
       id="path3351"
       d="m 452.324,158.921 c 1.368,1.679 0.089,3.643 -0.219,5.598 -0.564,3.577 -1.291,7.87 0.576,11.166" />
    <title
       id="title274-2">Shape 37</title>
    <g
       id="42-0">
      <defs
         id="defs277-4">
        <path
           id="43-4"
           d="m 378.14,247.593 c 1.248,-4.09 -0.073,-13.623 -1.732,-26.977 -0.999,-8.045 -4.163,-24.071 -2.123,-24.087 2.62,-0.02 6.531,2.043 8.485,3.135 3.31,1.852 6.742,3.619 9.869,5.235 5.394,2.787 7.422,4.034 12.921,6.594 7.976,3.711 15.926,7.753 23.865,12.74" />
      </defs>
      <use
         xlink:href="#43-4"
         style="opacity:0;fill:#000000;fill-opacity:1;fill-rule:evenodd;stroke:none"
         id="use279-8"
         x="0"
         y="0"
         width="100%"
         height="100%" />
      <use
         xlink:href="#43-4"
         style="opacity:1;fill:none;stroke:#000000;stroke-width:4;stroke-linecap:round;stroke-linejoin:round;stroke-miterlimit:10;stroke-opacity:1"
         id="use281-3"
         x="0"
         y="0"
         width="100%"
         height="100%" />
    </g>
    <path
       id="path3359"
       d="m 378.14,247.593 c 1.248,-4.09 -0.073,-13.623 -1.732,-26.977 -0.999,-8.045 -4.163,-24.071 -2.123,-24.087 2.62,-0.02 6.531,2.043 8.485,3.135 3.31,1.852 6.742,3.619 9.869,5.235 5.394,2.787 7.422,4.034 12.921,6.594 7.976,3.711 15.926,7.753 23.865,12.74" />
    <title
       id="title293-3">Shape 11</title>
    <g
       id="46-3"
       style="opacity:0">
      <defs
         id="defs296-4">
        <path
           id="47-6"
           d="m 174.734,175.318 c -0.352,-5.754 -0.307,-9.237 -0.796,-14.724 -0.233,-2.616 0.172,-8.194 0.22,-10.832 0.156,-8.533 1.241,-15.541 5.241,-23.059" />
      </defs>
      <use
         xlink:href="#47-6"
         style="opacity:1;fill:#a9a9a9;fill-opacity:1;fill-rule:evenodd;stroke:none"
         id="use298-4"
         x="0"
         y="0"
         width="100%"
         height="100%" />
    </g>
    <path
       id="path3366"
       d="m 174.734,175.318 c -0.352,-5.754 -0.307,-9.237 -0.796,-14.724 -0.233,-2.616 0.172,-8.194 0.22,-10.832 0.156,-8.533 1.241,-15.541 5.241,-23.059" />
    <title
       id="title305-2">Shape 12</title>
    <g
       id="48-5">
      <defs
         id="defs308-7">
        <path
           id="49-7"
           d="m 174.734,175.318 c -0.352,-5.754 -0.307,-9.237 -0.796,-14.724 -0.233,-2.616 0.172,-8.194 0.22,-10.832 0.156,-8.533 1.241,-15.541 5.241,-23.059" />
      </defs>
      <use
         xlink:href="#49-7"
         style="opacity:1;fill:none;stroke:#000000;stroke-width:4;stroke-linecap:round;stroke-linejoin:miter;stroke-miterlimit:10;stroke-opacity:1"
         id="use310-0"
         x="0"
         y="0"
         width="100%"
         height="100%" />
    </g>
    <path
       id="path3373"
       d="m 174.734,175.318 c -0.352,-5.754 -0.307,-9.237 -0.796,-14.724 -0.233,-2.616 0.172,-8.194 0.22,-10.832 0.156,-8.533 1.241,-15.541 5.241,-23.059" />
    <title
       id="title320-4">Shape 15</title>
    <g
       id="51-7"
       style="opacity:0">
      <defs
         id="defs323-9">
        <path
           id="52-0"
           d="m 160.421,93.0978 c 1.767,-0.3772 3.055,-0.7186 4.507,-1.0726 1.527,-0.3724 3.098,-0.8994 4.6,-1.3731 2.121,-0.6689 4.088,-1.368 6.187,-2.0865 3.55,-1.2156 6.989,-2.3147 10.54,-3.5296 3.298,-1.1284 6.669,-2.5676 9.915,-3.8462 3.801,-1.4979 7.75,-2.7099 11.534,-4.2224" />
      </defs>
      <use
         xlink:href="#52-0"
         style="opacity:1;fill:#a9a9a9;fill-opacity:1;fill-rule:evenodd;stroke:none"
         id="use325-6"
         x="0"
         y="0"
         width="100%"
         height="100%" />
    </g>
    <path
       id="path3380"
       d="m 160.421,93.0978 c 1.767,-0.3772 3.055,-0.7186 4.507,-1.0726 1.527,-0.3724 3.098,-0.8994 4.6,-1.3731 2.121,-0.6689 4.088,-1.368 6.187,-2.0865 3.55,-1.2156 6.989,-2.3147 10.54,-3.5296 3.298,-1.1284 6.669,-2.5676 9.915,-3.8462 3.801,-1.4979 7.75,-2.7099 11.534,-4.2224" />
    <title
       id="title332-4">Shape 16</title>
    <g
       id="53-8">
      <defs
         id="defs335-7">
        <path
           id="54-3"
           d="m 160.421,93.0978 c 1.767,-0.3772 3.055,-0.7186 4.507,-1.0726 1.527,-0.3724 3.098,-0.8994 4.6,-1.3731 2.121,-0.6689 4.088,-1.368 6.187,-2.0865 3.55,-1.2156 6.989,-2.3147 10.54,-3.5296 3.298,-1.1284 6.669,-2.5676 9.915,-3.8462 3.801,-1.4979 7.75,-2.7099 11.534,-4.2224" />
      </defs>
      <use
         xlink:href="#54-3"
         style="opacity:1;fill:none;stroke:#000000;stroke-width:5;stroke-linecap:square;stroke-linejoin:miter;stroke-miterlimit:10;stroke-opacity:1"
         id="use337-2"
         x="0"
         y="0"
         width="100%"
         height="100%" />
    </g>
    <path
       id="path3387"
       d="m 160.421,93.0978 c 1.767,-0.3772 3.055,-0.7186 4.507,-1.0726 1.527,-0.3724 3.098,-0.8994 4.6,-1.3731 2.121,-0.6689 4.088,-1.368 6.187,-2.0865 3.55,-1.2156 6.989,-2.3147 10.54,-3.5296 3.298,-1.1284 6.669,-2.5676 9.915,-3.8462 3.801,-1.4979 7.75,-2.7099 11.534,-4.2224" />
    <title
       id="title347-4">Shape 17</title>
    <g
       id="56-9"
       style="opacity:0">
      <defs
         id="defs350-2">
        <path
           id="57-1"
           d="m 169.528,90.6521 c -2.07,2.1077 -3.054,10.6239 -2.61,14.2799 0.625,5.144 2.563,9.613 5.815,13.762 1.906,2.432 3.343,4.815 5.734,6.288 0.344,0.212 1.993,1.398 2.538,1.692 1.962,1.061 3.512,1.648 5.5,1.836 0.9,0.085 3.31,-0.015 4.195,-0.224 2.433,-0.576 4.007,-1.282 6.242,-2.769 3.71,-2.468 4.804,-3.609 6.698,-5.752 0,0 1.54,-1.956 1.54,-1.956 0.686,-1.098 1.512,-2.391 1.874,-3.158 0.928,-1.966 1.56,-3.576 2.236,-5.642 2,-6.116 2.023,-13.5848 -1.48,-19.1588 -2.19,-3.4836 -6.781,-6.8399 -9.992,-9.2905" />
      </defs>
      <use
         xlink:href="#57-1"
         style="opacity:1;fill:#a9a9a9;fill-opacity:1;fill-rule:evenodd;stroke:none"
         id="use352-3"
         x="0"
         y="0"
         width="100%"
         height="100%" />
    </g>
    <path
       id="path3394"
       d="m 169.528,90.6521 c -2.07,2.1077 -3.054,10.6239 -2.61,14.2799 0.625,5.144 2.563,9.613 5.815,13.762 1.906,2.432 3.343,4.815 5.734,6.288 0.344,0.212 1.993,1.398 2.538,1.692 1.962,1.061 3.512,1.648 5.5,1.836 0.9,0.085 3.31,-0.015 4.195,-0.224 2.433,-0.576 4.007,-1.282 6.242,-2.769 3.71,-2.468 4.804,-3.609 6.698,-5.752 0,0 1.54,-1.956 1.54,-1.956 0.686,-1.098 1.512,-2.391 1.874,-3.158 0.928,-1.966 1.56,-3.576 2.236,-5.642 2,-6.116 2.023,-13.5848 -1.48,-19.1588 -2.19,-3.4836 -6.781,-6.8399 -9.992,-9.2905" />
    <title
       id="title359-6">Shape 18</title>
    <g
       id="58-3">
      <defs
         id="defs362-7">
        <path
           id="59-3"
           d="m 169.528,90.6521 c -2.07,2.1077 -3.054,10.6239 -2.61,14.2799 0.625,5.144 2.563,9.613 5.815,13.762 1.906,2.432 3.343,4.815 5.734,6.288 0.344,0.212 1.993,1.398 2.538,1.692 1.962,1.061 3.512,1.648 5.5,1.836 0.9,0.085 3.31,-0.015 4.195,-0.224 2.433,-0.576 4.007,-1.282 6.242,-2.769 3.71,-2.468 4.804,-3.609 6.698,-5.752 0,0 1.54,-1.956 1.54,-1.956 0.686,-1.098 1.512,-2.391 1.874,-3.158 0.928,-1.966 1.56,-3.576 2.236,-5.642 2,-6.116 2.023,-13.5848 -1.48,-19.1588 -2.19,-3.4836 -6.781,-6.8399 -9.992,-9.2905" />
      </defs>
      <use
         xlink:href="#59-3"
         style="opacity:1;fill:none;stroke:#000000;stroke-width:4;stroke-linecap:butt;stroke-linejoin:miter;stroke-miterlimit:10;stroke-opacity:1"
         id="use364-6"
         x="0"
         y="0"
         width="100%"
         height="100%" />
    </g>
    <path
       id="path3401"
       d="m 169.528,90.6521 c -2.07,2.1077 -3.054,10.6239 -2.61,14.2799 0.625,5.144 2.563,9.613 5.815,13.762 1.906,2.432 3.343,4.815 5.734,6.288 0.344,0.212 1.993,1.398 2.538,1.692 1.962,1.061 3.512,1.648 5.5,1.836 0.9,0.085 3.31,-0.015 4.195,-0.224 2.433,-0.576 4.007,-1.282 6.242,-2.769 3.71,-2.468 4.804,-3.609 6.698,-5.752 0,0 1.54,-1.956 1.54,-1.956 0.686,-1.098 1.512,-2.391 1.874,-3.158 0.928,-1.966 1.56,-3.576 2.236,-5.642 2,-6.116 2.023,-13.5848 -1.48,-19.1588 -2.19,-3.4836 -6.781,-6.8399 -9.992,-9.2905" />
    <title
       id="title374-0">Shape 19</title>
    <g
       id="61-2">
      <defs
         id="defs377-8">
        <path
           id="62-5"
           d="m 201.267,78.074 c -0.232,-1.0599 -0.77,-1.9561 -1.154,-2.9578 -0.721,-1.8764 -1.331,-3.6435 -2.723,-5.1686 -0.458,-0.5021 -0.536,-1.4151 -1.221,-1.7319 -0.382,-0.1768 -1.303,0.2762 -1.725,0.3305 -1.869,0.2405 -3.686,0.5564 -5.473,1.1738 -5.775,1.9947 -12.009,3.096 -17.551,5.6689 -1.057,0.4907 -2.222,1.0507 -3.334,1.3889 -0.595,0.1807 -1.482,0.2683 -1.866,0.8307 -0.098,0.1436 0.158,0.6381 0.225,0.7929 0.291,0.6662 0.402,1.4891 0.566,2.2006 0.714,3.0995 1.706,6.0973 2.201,9.219" />
      </defs>
      <use
         xlink:href="#62-5"
         style="opacity:1;fill:#000000;fill-opacity:1;fill-rule:evenodd;stroke:none"
         id="use379-8"
         x="0"
         y="0"
         width="100%"
         height="100%" />
    </g>
    <path
       id="path3408"
       d="m 201.267,78.074 c -0.232,-1.0599 -0.77,-1.9561 -1.154,-2.9578 -0.721,-1.8764 -1.331,-3.6435 -2.723,-5.1686 -0.458,-0.5021 -0.536,-1.4151 -1.221,-1.7319 -0.382,-0.1768 -1.303,0.2762 -1.725,0.3305 -1.869,0.2405 -3.686,0.5564 -5.473,1.1738 -5.775,1.9947 -12.009,3.096 -17.551,5.6689 -1.057,0.4907 -2.222,1.0507 -3.334,1.3889 -0.595,0.1807 -1.482,0.2683 -1.866,0.8307 -0.098,0.1436 0.158,0.6381 0.225,0.7929 0.291,0.6662 0.402,1.4891 0.566,2.2006 0.714,3.0995 1.706,6.0973 2.201,9.219" />
    <title
       id="title386-2">Shape 20</title>
    <g
       id="63-6">
      <defs
         id="defs389-2">
        <path
           id="64-0"
           d="m 201.267,78.074 c -0.232,-1.0599 -0.77,-1.9561 -1.154,-2.9578 -0.721,-1.8764 -1.331,-3.6435 -2.723,-5.1686 -0.458,-0.5021 -0.536,-1.4151 -1.221,-1.7319 -0.382,-0.1768 -1.303,0.2762 -1.725,0.3305 -1.869,0.2405 -3.686,0.5564 -5.473,1.1738 -5.775,1.9947 -12.009,3.096 -17.551,5.6689 -1.057,0.4907 -2.222,1.0507 -3.334,1.3889 -0.595,0.1807 -1.482,0.2683 -1.866,0.8307 -0.098,0.1436 0.158,0.6381 0.225,0.7929 0.291,0.6662 0.402,1.4891 0.566,2.2006 0.714,3.0995 1.706,6.0973 2.201,9.219" />
      </defs>
      <use
         xlink:href="#64-0"
         style="opacity:1;fill:none;stroke:#000000;stroke-width:4;stroke-linecap:round;stroke-linejoin:miter;stroke-miterlimit:10;stroke-opacity:1"
         id="use391-0"
         x="0"
         y="0"
         width="100%"
         height="100%" />
    </g>
    <path
       id="path3415"
       d="m 201.267,78.074 c -0.232,-1.0599 -0.77,-1.9561 -1.154,-2.9578 -0.721,-1.8764 -1.331,-3.6435 -2.723,-5.1686 -0.458,-0.5021 -0.536,-1.4151 -1.221,-1.7319 -0.382,-0.1768 -1.303,0.2762 -1.725,0.3305 -1.869,0.2405 -3.686,0.5564 -5.473,1.1738 -5.775,1.9947 -12.009,3.096 -17.551,5.6689 -1.057,0.4907 -2.222,1.0507 -3.334,1.3889 -0.595,0.1807 -1.482,0.2683 -1.866,0.8307 -0.098,0.1436 0.158,0.6381 0.225,0.7929 0.291,0.6662 0.402,1.4891 0.566,2.2006 0.714,3.0995 1.706,6.0973 2.201,9.219" />
    <title
       id="title399-2">Shape 9</title>
    <g
       id="65-4">
      <defs
         id="defs402-7">
        <path
           id="66-1"
           d="m 191.344,222.824 c 1.553,-1.638 8.162,-9.511 12.974,-15.379 4.473,-5.455 10.653,-16.021 12.029,-17.964 0,0 3.246,-4.854 2.844,-6.2 -0.359,-1.204 -1.551,-1.717 -2.639,-1.909 -2.541,-0.45 -8.612,-1.053 -11.665,-1.311 -3.335,-0.282 -16.694,-1.143 -16.694,-1.143 -0.909,-0.093 -6.422,-0.706 -7.303,-0.926 -2.137,-0.535 -6.047,-2.076 -6.047,-2.783 0,-0.388 2.646,-0.411 4.031,-0.518 1.625,-0.126 9.83,-0.38 11.088,-0.422 8.07,-0.27 11.064,-0.342 17.927,-0.817 4.838,-0.335 10.872,-0.555 14.063,0.715 1.106,0.439 2.144,0.918 2.92,1.832 1.463,1.724 2.131,4.128 2.806,5.893 0.766,2.004 1.848,5.938 2.527,7.902 0.936,2.714 1.608,5.15 2.464,7.572 1.967,5.565 2.712,7.848 4.221,13.693 1.54,5.971 3.078,10.908 4.071,15.022" />
      </defs>
      <use
         xlink:href="#66-1"
         style="opacity:0;fill:#a9a9a9;fill-opacity:1;fill-rule:evenodd;stroke:none"
         id="use404-5"
         x="0"
         y="0"
         width="100%"
         height="100%" />
      <use
         xlink:href="#66-1"
         style="opacity:1;fill:none;stroke:#000000;stroke-width:4;stroke-linecap:round;stroke-linejoin:miter;stroke-miterlimit:10;stroke-opacity:1"
         id="use406-5"
         x="0"
         y="0"
         width="100%"
         height="100%" />
    </g>
    <path
       id="path3423"
       d="m 191.344,222.824 c 1.553,-1.638 8.162,-9.511 12.974,-15.379 4.473,-5.455 10.653,-16.021 12.029,-17.964 0,0 3.246,-4.854 2.844,-6.2 -0.359,-1.204 -1.551,-1.717 -2.639,-1.909 -2.541,-0.45 -8.612,-1.053 -11.665,-1.311 -3.335,-0.282 -16.694,-1.143 -16.694,-1.143 -0.909,-0.093 -6.422,-0.706 -7.303,-0.926 -2.137,-0.535 -6.047,-2.076 -6.047,-2.783 0,-0.388 2.646,-0.411 4.031,-0.518 1.625,-0.126 9.83,-0.38 11.088,-0.422 8.07,-0.27 11.064,-0.342 17.927,-0.817 4.838,-0.335 10.872,-0.555 14.063,0.715 1.106,0.439 2.144,0.918 2.92,1.832 1.463,1.724 2.131,4.128 2.806,5.893 0.766,2.004 1.848,5.938 2.527,7.902 0.936,2.714 1.608,5.15 2.464,7.572 1.967,5.565 2.712,7.848 4.221,13.693 1.54,5.971 3.078,10.908 4.071,15.022" />
    <title
       id="title413-0">Shape 33</title>
    <g
       id="67-7">
      <defs
         id="defs416-6">
        <path
           id="68-6"
           d="m 171.349,189.418 c -0.547,-5.6 -3.806,-11.664 -6.659,-18.549 -0.791,-1.909 -2.638,-5.472 -3.462,-7.646 -0.847,-2.233 -1.351,-4.518 -0.66,-6.568 0,0 5.429,-10.314 7.352,-13.746 1.319,-2.355 3.558,-6.778 5.187,-8.939 2.003,-2.656 6.209,-7.264 6.573,-7.016 0.346,0.052 0.496,3.421 0.985,4.841 1.525,4.429 5.586,7.254 8.546,10.733 5.332,6.266 12.002,11.704 18.845,16.381 5.668,3.875 11.468,7.01 17.263,11.333 0.729,0.544 1.965,1.853 2.771,3.384" />
      </defs>
      <use
         xlink:href="#68-6"
         style="opacity:0;fill:#a9a9a9;fill-opacity:1;fill-rule:evenodd;stroke:none"
         id="use418-0"
         x="0"
         y="0"
         width="100%"
         height="100%" />
      <use
         xlink:href="#68-6"
         style="opacity:1;fill:none;stroke:#000000;stroke-width:4;stroke-linecap:round;stroke-linejoin:round;stroke-miterlimit:10;stroke-opacity:1"
         id="use420-0"
         x="0"
         y="0"
         width="100%"
         height="100%" />
    </g>
    <path
       id="path3431"
       d="m 171.349,189.418 c -0.547,-5.6 -3.806,-11.664 -6.659,-18.549 -0.791,-1.909 -2.638,-5.472 -3.462,-7.646 -0.847,-2.233 -1.351,-4.518 -0.66,-6.568 0,0 5.429,-10.314 7.352,-13.746 1.319,-2.355 3.558,-6.778 5.187,-8.939 2.003,-2.656 6.209,-7.264 6.573,-7.016 0.346,0.052 0.496,3.421 0.985,4.841 1.525,4.429 5.586,7.254 8.546,10.733 5.332,6.266 12.002,11.704 18.845,16.381 5.668,3.875 11.468,7.01 17.263,11.333 0.729,0.544 1.965,1.853 2.771,3.384" />
  </defs>
  <sodipodi:namedview
     id="namedview430"
     pagecolor="#505050"
     bordercolor="#eeeeee"
     borderopacity="1"
     inkscape:pageshadow="0"
     inkscape:pageopacity="0"
     inkscape:pagecheckerboard="0"
     inkscape:document-units="pt"
     showgrid="false"
     inkscape:snap-page="true"
     inkscape:snap-bbox="true"
     inkscape:bbox-paths="true"
     inkscape:bbox-nodes="true"
     inkscape:snap-bbox-midpoints="true"
     inkscape:snap-object-midpoints="true"
     inkscape:snap-center="true"
     inkscape:zoom="0.70710678"
     inkscape:cx="139.30004"
     inkscape:cy="325.97623"
     inkscape:window-width="2560"
     inkscape:window-height="1017"
     inkscape:window-x="-8"
     inkscape:window-y="-8"
     inkscape:window-maximized="1"
     inkscape:current-layer="svg428" />
  <rect
     style="fill:#ffffff;fill-opacity:1;stroke:#ffffff;stroke-width:0.999997;stroke-miterlimit:4;stroke-dasharray:none;stroke-opacity:1"
     id="rect8038"
     width="520"
     height="520"
     x="0"
     y="0" />
  <g
     id="1"
     style="fill:#ffffff;stroke:#ffffff">
    <title
       id="title2">Layer 3</title>
    <defs
       id="defs12">
      <title
         id="title4">Text</title>
      <g
         id="2">
        <defs
           id="defs7">
          <path
             id="3"
             d="M50.9659,340.213 C50.9659,340.213,73.5924,340.213,73.5924,340.213 C73.5924,340.213,99.4208,297.635,99.4208,297.635 C99.4208,297.635,124.609,340.213,124.609,340.213 C124.609,340.213,149.583,340.213,149.583,340.213 C149.583,340.213,113.722,282.333,113.722,282.333 C113.722,282.333,146.595,227.114,146.595,227.114 C146.595,227.114,124.395,227.114,124.395,227.114 C124.395,227.114,101.769,267.697,101.769,267.697 C101.769,267.697,77.4346,227.114,77.4346,227.114 C77.4346,227.114,52.4601,227.114,52.4601,227.114 C52.4601,227.114,87.2537,282.555,87.2537,282.555 C87.2537,282.555,50.9659,340.213,50.9659,340.213 z M169.971,340.213 C169.971,340.213,190.89,340.213,190.89,340.213 C190.89,340.213,190.89,178.326,190.89,178.326 C190.89,178.326,169.971,178.326,169.971,178.326 C169.971,178.326,169.971,340.213,169.971,340.213 z M234.649,340.213 C234.649,340.213,258.343,340.213,258.343,340.213 C258.343,340.213,215.438,280.337,215.438,280.337 C215.438,280.337,255.355,227.114,255.355,227.114 C255.355,227.114,232.941,227.114,232.941,227.114 C232.941,227.114,192.811,281.668,192.811,281.668 C192.811,281.668,234.649,340.213,234.649,340.213 z M323.344,342.209 C338.499,342.209,348.532,338.218,355.789,333.339 C355.789,333.339,355.789,316.707,355.789,316.707 C350.026,319.589,340.42,324.246,326.546,324.246 C305.2,324.246,294.1,312.715,294.1,285.438 C294.1,285.438,294.1,279.672,294.1,279.672 C294.1,255.943,305.84,243.303,324.411,243.303 C338.286,243.303,344.903,245.964,354.508,250.177 C354.508,250.177,354.508,232.215,354.508,232.215 C347.251,227.779,338.926,224.896,324.624,224.896 C295.167,224.896,272.327,243.081,272.327,282.555 C272.327,282.555,272.327,286.325,272.327,286.325 C272.327,323.803,292.179,342.209,323.344,342.209 z M416.948,342.209 C431.249,342.209,441.709,337.774,448.113,331.121 C448.113,331.121,449.18,331.121,449.18,331.121 C449.18,331.121,451.101,340.213,451.101,340.213 C451.101,340.213,469.031,340.213,469.031,340.213 C469.031,340.213,469.031,178.326,469.031,178.326 C469.031,178.326,447.899,178.326,447.899,178.326 C447.899,178.326,447.899,231.771,447.899,231.771 C442.776,228.666,434.024,224.896,420.79,224.896 C392.827,224.896,372.549,242.859,372.549,284.329 C372.549,284.329,372.549,287.212,372.549,287.212 C372.549,328.46,395.815,342.209,416.948,342.209 z M424.205,324.912 C406.275,324.912,394.108,316.041,394.108,286.325 C394.108,286.325,394.108,281.668,394.108,281.668 C394.108,252.839,405.421,243.081,423.992,243.081 C434.238,243.081,443.63,245.52,447.899,249.29 C447.899,249.29,447.899,316.485,447.899,316.485 C443.417,320.033,435.519,324.912,424.205,324.912 z" />
        </defs>
        <use
           xlink:href="#3"
           style="fill:#000000;fill-opacity:1;fill-rule:nonzero;opacity:1;stroke:none;"
           id="use9" />
      </g>
    </defs>
    <use
       xlink:href="#2"
       id="use14"
       style="fill:#ffffff;stroke:#ffffff" />
  </g>
  <g
     id="4"
     style="fill:#ffffff;stroke:#ffffff">
    <title
       id="title17">Woman original</title>
    <defs
       id="defs29">
      <title
         id="title19">Path</title>
      <g
         id="5">
        <defs
           id="defs22">
          <path
             id="6"
             d="M430.653,223.817 C432.349,220.06,433.676,213.844,435.091,210.374 C438.594,201.786,439.928,198.207,441.428,189.663 C441.812,187.478,442.19,181.271,442.185,179.064 C442.182,177.779,441.79,173.955,441.418,172.263" />
        </defs>
        <use
           xlink:href="#6"
           style="fill:#000000;fill-opacity:1;fill-rule:nonzero;opacity:0;stroke:none;"
           id="use24" />
        <use
           xlink:href="#6"
           style="fill:none;opacity:1;stroke:#000000;stroke-linecap:round;stroke-linejoin:miter;stroke-miterlimit:10;stroke-opacity:1;stroke-width:4;"
           id="use26" />
      </g>
    </defs>
    <defs
       id="defs43">
      <title
         id="title33">Shape 37</title>
      <g
         id="7">
        <defs
           id="defs36">
          <path
             id="8"
             d="M429.425,223.449 C426.531,221.823,424.044,220.583,423.165,220.062 C421.02,218.789,415.734,216.211,413.569,214.934 C405.484,210.165,410.205,213.001,401.581,207.058 C399.03,205.301,394.982,202.866,392.47,201.059 C388.973,198.544,385.874,196.059,385.018,196.605 C384.089,197.199,379.632,222.448,378.525,230.733 C377.578,237.823,374.696,255.36,373.625,260.268" />
        </defs>
        <use
           xlink:href="#8"
           style="fill:#000000;fill-opacity:1;fill-rule:evenodd;opacity:0;stroke:none;"
           id="use38" />
        <use
           xlink:href="#8"
           style="fill:none;opacity:1;stroke:#000000;stroke-linecap:round;stroke-linejoin:round;stroke-miterlimit:10;stroke-opacity:1;stroke-width:4;"
           id="use40" />
      </g>
    </defs>
    <defs
       id="defs57">
      <title
         id="title47">Path</title>
      <g
         id="9">
        <defs
           id="defs50">
          <path
             id="10"
             d="M409.365,207.058 C406.775,205.79,403.963,204.222,401.373,202.938 C399.998,202.256,397.601,201.047,397.193,200.534 C396.564,199.742,395.956,197.575,395.374,196.006 C394.446,193.507,394.075,191.158,393.168,188.652 C392.435,186.626,392.135,185.163,391.257,183.198 C390.513,181.534,389.8,180.124,389.056,178.452 C388.63,177.494,387.567,174.946,387.059,173.817 C387.447,173.751,389.005,173.783,389.455,173.729 C390.905,173.556,391.975,173.505,393.785,173.035 C394.591,172.825,395.656,172.486,396.323,172.184 C396.876,173.039,397.213,173.883,397.723,174.869 C398.035,175.471,398.728,177.451,398.98,178.079 C399.71,179.896,400.953,184.373,401.677,186.185 C402.968,189.411,402.974,189.47,404.243,192.704 C404.889,194.352,405.173,195.276,405.715,196.95 C405.914,197.563,406.885,199.504,407.093,200.112 C408.006,202.791,408.615,204.341,409.365,207.058 z" />
        </defs>
        <use
           xlink:href="#10"
           style="fill:#000000;fill-opacity:1;fill-rule:nonzero;opacity:0.62;stroke:none;"
           id="use52" />
        <use
           xlink:href="#10"
           style="fill:none;opacity:1;stroke:#000000;stroke-linecap:round;stroke-linejoin:round;stroke-miterlimit:10;stroke-opacity:1;stroke-width:2.5;"
           id="use54" />
      </g>
    </defs>
    <defs
       id="defs71">
      <title
         id="title61">Path</title>
      <g
         id="11">
        <defs
           id="defs64">
          <path
             id="12"
             d="M390.784,190.205 C390.826,191.474,390.956,192.572,392.179,193.366 C393.007,193.904,394.393,193.94,395.286,193.384 C395.847,193.034,395.722,192.11,395.506,191.597 C395.28,191.061,395.13,190.448,394.814,189.952 C394.476,189.421,394.047,188.915,393.565,188.515 C393.135,188.158,392.805,187.841,392.164,187.848 C391.4,187.857,390.747,189.051,390.784,190.205 z" />
        </defs>
        <use
           xlink:href="#12"
           style="fill:#000000;fill-opacity:1;fill-rule:nonzero;opacity:1;stroke:none;"
           id="use66" />
        <use
           xlink:href="#12"
           style="fill:none;opacity:1;stroke:#000000;stroke-linecap:round;stroke-linejoin:round;stroke-miterlimit:10;stroke-opacity:1;stroke-width:2.5;"
           id="use68" />
      </g>
    </defs>
    <defs
       id="defs85">
      <title
         id="title75">Path</title>
      <g
         id="13">
        <defs
           id="defs78">
          <path
             id="14"
             d="M409.564,192.673 C409.948,193.343,409.882,194.366,409.768,195.148 C409.585,196.409,409.307,197.24,408.565,198.248 C407.915,199.131,407.479,199.626,407.002,199.874 C405.756,200.521,404.325,200.105,403.759,199.891 C402.079,199.254,401.386,198.271,400.844,196.469 C400.476,195.245,400.653,194.482,401.134,193.32 C401.263,193.009,401.296,192.601,401.589,192.387 C402.133,191.99,402.894,192.178,403.496,192.135 C403.877,192.108,404.409,191.873,404.782,191.756 C405.116,191.651,405.563,191.439,405.804,191.179 C405.973,190.998,405.928,190.65,406.168,190.531 C407.698,189.769,409.08,191.592,409.564,192.673 z" />
        </defs>
        <use
           xlink:href="#14"
           style="fill:#000000;fill-opacity:1;fill-rule:nonzero;opacity:1;stroke:none;"
           id="use80" />
        <use
           xlink:href="#14"
           style="fill:none;opacity:1;stroke:#000000;stroke-linecap:round;stroke-linejoin:round;stroke-miterlimit:10;stroke-opacity:1;stroke-width:2.5;"
           id="use82" />
      </g>
    </defs>
    <defs
       id="defs99">
      <title
         id="title89">Path</title>
      <g
         id="15">
        <defs
           id="defs92">
          <path
             id="16"
             d="M409.385,196.633 C410.824,197.657,412.344,198.528,413.831,199.467 C417.534,201.803,419.134,202.586,422.115,203.981 C424.577,205.133,427.384,206.326,428.443,206.797 C430.905,207.894,432.865,208.721,435.378,209.669 C437.528,210.481,438.998,211.14,441.19,211.981 C441.819,212.223,443.342,212.8,444.021,212.363 C445.941,211.129,445.32,205.398,445.241,202.888 C445.072,197.536,444.51,192.154,443.636,186.314 C443.148,183.051,441.865,179.984,441.326,176.725 C440.141,178.863,439.377,179.967,438.601,181.49 C436.779,185.064,435.25,188.726,433.767,192.455 C432.531,195.566,431.322,198.493,430.056,201.384 C429.302,203.106,428.605,205.08,427.705,206.876 C427.417,207.453,426.832,208.604,426.142,208.777 C425.652,208.899,424.316,208.152,423.882,207.965 C422.487,207.363,419.1,205.797,417.756,205.087 C413.74,202.966,412.166,202.099,407.867,200.59" />
        </defs>
        <use
           xlink:href="#16"
           style="fill:#000000;fill-opacity:1;fill-rule:nonzero;opacity:0;stroke:none;"
           id="use94" />
        <use
           xlink:href="#16"
           style="fill:none;opacity:1;stroke:#000000;stroke-linecap:round;stroke-linejoin:round;stroke-miterlimit:10;stroke-opacity:1;stroke-width:4;"
           id="use96" />
      </g>
    </defs>
    <defs
       id="defs113">
      <title
         id="title103">Path</title>
      <g
         id="17">
        <defs
           id="defs106">
          <path
             id="18"
             d="M401.039,127.831 C400.934,123.957,405.273,119.618,409.193,117.301 C416.906,112.742,431.474,107.841,441.571,112.822 C449.313,116.64,454.492,125.169,455.745,133.578 C456.166,136.401,456.498,143.844,456.615,146.618 C456.947,154.461,452.962,160.704,446.349,165.982 C437.678,172.905,427.954,172.409,419.095,169.183 C417.269,168.518,411.655,164.202,410.601,162.526 C407.682,157.886,406.09,153.974,404.002,148.475 C403.183,146.319,402.173,142.818,401.716,140.514 C400.871,136.263,401.157,132.154,401.039,127.831 z" />
        </defs>
        <use
           xlink:href="#18"
           style="fill:#000000;fill-opacity:1;fill-rule:nonzero;opacity:0;stroke:none;"
           id="use108" />
        <use
           xlink:href="#18"
           style="fill:none;opacity:1;stroke:#000000;stroke-linecap:round;stroke-linejoin:round;stroke-miterlimit:10;stroke-opacity:1;stroke-width:5;"
           id="use110" />
      </g>
    </defs>
    <g
       id="19"
       style="fill:#ffffff;stroke:#ffffff">
      <title
         id="title117">Group</title>
      <defs
         id="defs129">
        <title
           id="title119">Path</title>
        <g
           id="20">
          <defs
             id="defs122">
            <path
               id="21"
               d="M459.029,165.57 C458.05,164.311,456.528,160.833,456.14,159.421 C455.071,155.537,454.553,150.915,452.797,147.214 C451.855,145.227,451.109,142.623,449.225,141.313 C445.629,138.815,441.278,135.163,436.803,134.568 C431.331,133.841,425.691,136.452,420.213,137.079 C416.805,137.469,411.694,135.882,408.469,134.777 C404.401,133.385,404.736,129.583,401.581,127.549 C407.57,129.499,410.512,133.393,416.753,133.386 C424.272,133.376,431.686,128.266,438.931,131.104 C447.53,134.473,450.63,145.592,453.247,153.464 C454.752,157.991,454.414,165.013,455.588,169.368" />
          </defs>
          <use
             xlink:href="#21"
             style="fill:#000000;fill-opacity:1;fill-rule:nonzero;opacity:0;stroke:none;"
             id="use124" />
          <use
             xlink:href="#21"
             style="fill:none;opacity:1;stroke:#000000;stroke-linecap:round;stroke-linejoin:round;stroke-miterlimit:10;stroke-opacity:1;stroke-width:4.5;"
             id="use126" />
        </g>
      </defs>
      <defs
         id="defs143">
        <title
           id="title133">Path</title>
        <g
           id="22">
          <defs
             id="defs136">
            <path
               id="23"
               d="M404.237,124.447 C412.396,127.154,419.852,126.575,428.384,126.582 C430.495,126.584,432.468,125.9,434.608,126.256 C437.255,126.696,439.816,128.777,442.089,130.119 C444.188,131.359,446.581,132.292,448.386,133.973 C454.869,140.009,454.748,149.319,453.094,157.431 C452.108,162.269,450.897,168.721,448.151,173.436" />
          </defs>
          <use
             xlink:href="#23"
             style="fill:#000000;fill-opacity:1;fill-rule:nonzero;opacity:0;stroke:none;"
             id="use138" />
          <use
             xlink:href="#23"
             style="fill:none;opacity:1;stroke:#000000;stroke-linecap:round;stroke-linejoin:round;stroke-miterlimit:10;stroke-opacity:1;stroke-width:4.5;"
             id="use140" />
        </g>
      </defs>
      <defs
         id="defs157">
        <title
           id="title147">Path</title>
        <g
           id="24">
          <defs
             id="defs150">
            <path
               id="25"
               d="M407.634,121.249 C412.31,124.668,422.815,124.526,428.478,124.142 C430.464,124.007,432.729,123.187,434.682,123.371 C440.004,123.871,444.283,127.188,447.431,131.321 C448.842,133.174,449.886,135.321,450.488,137.58 C451.228,140.358,451.278,143.159,450.951,145.993 C450.418,150.62,448.373,155.045,447.379,159.59 C446.42,163.974,444.191,169.704,443.669,173.49" />
          </defs>
          <use
             xlink:href="#25"
             style="fill:#000000;fill-opacity:1;fill-rule:nonzero;opacity:0;stroke:none;"
             id="use152" />
          <use
             xlink:href="#25"
             style="fill:none;opacity:1;stroke:#000000;stroke-linecap:round;stroke-linejoin:round;stroke-miterlimit:10;stroke-opacity:1;stroke-width:4.5;"
             id="use154" />
        </g>
      </defs>
      <defs
         id="defs171">
        <title
           id="title161">Path</title>
        <g
           id="26">
          <defs
             id="defs164">
            <path
               id="27"
               d="M445.796,173.784 C449.642,168.164,452.501,155.037,452.797,147.214 C452.912,144.185,450.503,138.788,450.076,135.799 C449.365,130.816,445.614,125.56,441.809,121.442 C439.539,118.985,437.066,118.359,433.945,117.764 C425.139,116.085,413.36,114.242,407.529,122.517 C409.903,117.705,415.028,116.13,418.907,115.015 C421.032,114.404,422.88,112.954,424.98,112.4 C426.106,112.104,427.423,112.736,428.585,112.716 C433.213,112.636,439.99,113.325,443.534,116.681 C452.71,125.369,452.552,139.22,455.752,150.572" />
          </defs>
          <use
             xlink:href="#27"
             style="fill:#000000;fill-opacity:1;fill-rule:nonzero;opacity:0;stroke:none;"
             id="use166" />
          <use
             xlink:href="#27"
             style="fill:none;opacity:1;stroke:#000000;stroke-linecap:round;stroke-linejoin:round;stroke-miterlimit:10;stroke-opacity:1;stroke-width:4.5;"
             id="use168" />
        </g>
      </defs>
      <defs
         id="defs185">
        <title
           id="title175">Path</title>
        <g
           id="28">
          <defs
             id="defs178">
            <path
               id="29"
               d="M434.416,128.057 C432.843,127.661,430.411,128.329,428.775,128.521 C426.57,128.779,424.343,128.785,422.143,129.086 C419.79,129.407,417.199,129.961,414.822,129.861 C413.366,129.799,411.916,129.192,410.504,128.893 C409.824,128.749,409.175,128.885,408.516,128.603 C407.167,128.025,405.96,126.737,404.436,126.871" />
          </defs>
          <use
             xlink:href="#29"
             style="fill:#000000;fill-opacity:1;fill-rule:nonzero;opacity:0;stroke:none;"
             id="use180" />
          <use
             xlink:href="#29"
             style="fill:none;opacity:1;stroke:#000000;stroke-linecap:round;stroke-linejoin:round;stroke-miterlimit:10;stroke-opacity:1;stroke-width:4.5;"
             id="use182" />
        </g>
      </defs>
      <defs
         id="defs199">
        <title
           id="title189">Path</title>
        <g
           id="30">
          <defs
             id="defs192">
            <path
               id="31"
               d="M423.77,113.824 C424.349,113.275,424.866,113.698,425.527,113.923 C426.923,114.397,428.404,114.788,429.864,115.013 C435.234,115.843,440.157,115.846,444.023,120.247 C445.212,121.601,446.353,122.724,446.28,124.612" />
          </defs>
          <use
             xlink:href="#31"
             style="fill:#000000;fill-opacity:1;fill-rule:nonzero;opacity:0;stroke:none;"
             id="use194" />
          <use
             xlink:href="#31"
             style="fill:none;opacity:1;stroke:#000000;stroke-linecap:round;stroke-linejoin:round;stroke-miterlimit:10;stroke-opacity:1;stroke-width:4.5;"
             id="use196" />
        </g>
      </defs>
      <defs
         id="defs213">
        <title
           id="title203">Path</title>
        <g
           id="32">
          <defs
             id="defs206">
            <path
               id="33"
               d="M410.864,120.434 C412.366,118.119,416.392,119.746,418.77,119.619 C424.315,119.323,431.157,119.04,436.44,120.911 C439.035,121.83,441.302,123.617,443.591,125.102" />
          </defs>
          <use
             xlink:href="#33"
             style="fill:#000000;fill-opacity:1;fill-rule:nonzero;opacity:0;stroke:none;"
             id="use208" />
          <use
             xlink:href="#33"
             style="fill:none;opacity:1;stroke:#000000;stroke-linecap:round;stroke-linejoin:round;stroke-miterlimit:10;stroke-opacity:1;stroke-width:4.5;"
             id="use210" />
        </g>
      </defs>
      <defs
         id="defs227">
        <title
           id="title217">Path</title>
        <g
           id="34">
          <defs
             id="defs220">
            <path
               id="35"
               d="M413.382,121.633 C420.137,120.646,427.955,122.097,433.824,125.437" />
          </defs>
          <use
             xlink:href="#35"
             style="fill:#000000;fill-opacity:1;fill-rule:nonzero;opacity:0;stroke:none;"
             id="use222" />
          <use
             xlink:href="#35"
             style="fill:none;opacity:1;stroke:#000000;stroke-linecap:round;stroke-linejoin:round;stroke-miterlimit:10;stroke-opacity:1;stroke-width:4.5;"
             id="use224" />
        </g>
      </defs>
      <defs
         id="defs241">
        <title
           id="title231">Path</title>
        <g
           id="36">
          <defs
             id="defs234">
            <path
               id="37"
               d="M422.463,134.072 C423.876,133.02,425.695,133.15,427.4,132.851 C430.692,132.274,433.918,131.509,437.165,130.721" />
          </defs>
          <use
             xlink:href="#37"
             style="fill:#000000;fill-opacity:1;fill-rule:nonzero;opacity:0;stroke:none;"
             id="use236" />
          <use
             xlink:href="#37"
             style="fill:none;opacity:1;stroke:#000000;stroke-linecap:round;stroke-linejoin:round;stroke-miterlimit:10;stroke-opacity:1;stroke-width:4.5;"
             id="use238" />
        </g>
      </defs>
      <defs
         id="defs255">
        <title
           id="title245">Path</title>
        <g
           id="38">
          <defs
             id="defs248">
            <path
               id="39"
               d="M456.205,135.137 C457.851,138.249,457.526,142.092,457.714,145.508 C457.958,149.925,458.52,154.353,458.819,158.773" />
          </defs>
          <use
             xlink:href="#39"
             style="fill:#000000;fill-opacity:1;fill-rule:nonzero;opacity:0;stroke:none;"
             id="use250" />
          <use
             xlink:href="#39"
             style="fill:none;opacity:1;stroke:#000000;stroke-linecap:round;stroke-linejoin:round;stroke-miterlimit:10;stroke-opacity:1;stroke-width:4.5;"
             id="use252" />
        </g>
      </defs>
      <defs
         id="defs269">
        <title
           id="title259">Path</title>
        <g
           id="40">
          <defs
             id="defs262">
            <path
               id="41"
               d="M452.324,158.921 C453.692,160.6,452.413,162.564,452.105,164.519 C451.541,168.096,450.814,172.389,452.681,175.685" />
          </defs>
          <use
             xlink:href="#41"
             style="fill:#000000;fill-opacity:1;fill-rule:nonzero;opacity:0;stroke:none;"
             id="use264" />
          <use
             xlink:href="#41"
             style="fill:none;opacity:1;stroke:#000000;stroke-linecap:round;stroke-linejoin:round;stroke-miterlimit:10;stroke-opacity:1;stroke-width:4.5;"
             id="use266" />
        </g>
      </defs>
    </g>
    <defs
       id="defs284">
      <title
         id="title274">Shape 37</title>
      <g
         id="42">
        <defs
           id="defs277">
          <path
             id="43"
             d="M378.14,247.593 C379.388,243.503,378.067,233.97,376.408,220.616 C375.409,212.571,372.245,196.545,374.285,196.529 C376.905,196.509,380.816,198.572,382.77,199.664 C386.08,201.516,389.512,203.283,392.639,204.899 C398.033,207.686,400.061,208.933,405.56,211.493 C413.536,215.204,421.486,219.246,429.425,224.233" />
        </defs>
        <use
           xlink:href="#43"
           style="fill:#000000;fill-opacity:1;fill-rule:evenodd;opacity:0;stroke:none;"
           id="use279" />
        <use
           xlink:href="#43"
           style="fill:none;opacity:1;stroke:#000000;stroke-linecap:round;stroke-linejoin:round;stroke-miterlimit:10;stroke-opacity:1;stroke-width:4;"
           id="use281" />
      </g>
    </defs>
    <g
       id="g1565"
       style="fill:#ffffff;stroke:#ffffff">
      <use
         xlink:href="#5"
         id="use31"
         style="fill:#ffffff;stroke:#ffffff" />
      <use
         xlink:href="#7"
         id="use45"
         style="fill:#ffffff;stroke:#ffffff" />
      <use
         xlink:href="#9"
         id="use59"
         style="fill:#ffffff;stroke:#ffffff" />
      <use
         xlink:href="#11"
         id="use73"
         style="fill:#ffffff;stroke:#ffffff" />
      <use
         xlink:href="#13"
         id="use87"
         style="fill:#ffffff;stroke:#ffffff" />
      <use
         xlink:href="#15"
         id="use101"
         style="fill:#ffffff;stroke:#ffffff" />
      <use
         xlink:href="#17"
         id="use115"
         style="fill:#ffffff;stroke:#ffffff" />
      <use
         xlink:href="#20"
         id="use131"
         style="fill:#ffffff;stroke:#ffffff" />
      <use
         xlink:href="#22"
         id="use145"
         style="fill:#ffffff;stroke:#ffffff" />
      <use
         xlink:href="#24"
         id="use159"
         style="fill:#ffffff;stroke:#ffffff" />
      <use
         xlink:href="#26"
         id="use173"
         style="fill:#ffffff;stroke:#ffffff" />
      <use
         xlink:href="#28"
         id="use187"
         style="fill:#ffffff;stroke:#ffffff" />
      <use
         xlink:href="#30"
         id="use201"
         style="fill:#ffffff;stroke:#ffffff" />
      <use
         xlink:href="#32"
         id="use215"
         style="fill:#ffffff;stroke:#ffffff" />
      <use
         xlink:href="#34"
         id="use229"
         style="fill:#ffffff;stroke:#ffffff" />
      <use
         xlink:href="#36"
         id="use243"
         style="fill:#ffffff;stroke:#ffffff" />
      <use
         xlink:href="#38"
         id="use257"
         style="fill:#ffffff;stroke:#ffffff" />
      <use
         xlink:href="#40"
         id="use271"
         style="fill:#ffffff;stroke:#ffffff" />
      <use
         xlink:href="#42"
         id="use286"
         style="fill:#ffffff;stroke:#ffffff" />
    </g>
  </g>
  <g
     id="44"
     style="fill:#ffffff;stroke:#ffffff;stroke-opacity:1">
    <title
       id="title289">Layer 4</title>
    <g
       id="45"
       style="fill:#ffffff;stroke:#ffffff;stroke-opacity:1">
      <title
         id="title291">Group</title>
      <defs
         id="defs301">
        <title
           id="title293">Shape 11</title>
        <g
           id="46"
           style="opacity:0;">
          <defs
             id="defs296">
            <path
               id="47"
               d="M174.734,175.318 C174.382,169.564,174.427,166.081,173.938,160.594 C173.705,157.978,174.11,152.4,174.158,149.762 C174.314,141.229,175.399,134.221,179.399,126.703" />
          </defs>
          <use
             xlink:href="#47"
             style="fill:#a9a9a9;fill-opacity:1;fill-rule:evenodd;opacity:1;stroke:none;"
             id="use298" />
        </g>
      </defs>
      <use
         xlink:href="#46"
         id="use303"
         style="fill:#ffffff;stroke:#ffffff;stroke-opacity:1" />
      <defs
         id="defs313">
        <title
           id="title305">Shape 12</title>
        <g
           id="48">
          <defs
             id="defs308">
            <path
               id="49"
               d="M174.734,175.318 C174.382,169.564,174.427,166.081,173.938,160.594 C173.705,157.978,174.11,152.4,174.158,149.762 C174.314,141.229,175.399,134.221,179.399,126.703" />
          </defs>
          <use
             xlink:href="#49"
             style="fill:none;opacity:1;stroke:#000000;stroke-linecap:round;stroke-linejoin:miter;stroke-miterlimit:10;stroke-opacity:1;stroke-width:4;"
             id="use310" />
        </g>
      </defs>
      <use
         xlink:href="#48"
         id="use315"
         style="fill:#ffffff;stroke:#ffffff;stroke-opacity:1" />
    </g>
    <g
       id="50"
       style="fill:#ffffff;stroke:#ffffff;stroke-opacity:1">
      <title
         id="title318">Group</title>
      <defs
         id="defs328">
        <title
           id="title320">Shape 15</title>
        <g
           id="51"
           style="opacity:0;">
          <defs
             id="defs323">
            <path
               id="52"
               d="M160.421,93.0978 C162.188,92.7206,163.476,92.3792,164.928,92.0252 C166.455,91.6528,168.026,91.1258,169.528,90.6521 C171.649,89.9832,173.616,89.2841,175.715,88.5656 C179.265,87.35,182.704,86.2509,186.255,85.036 C189.553,83.9076,192.924,82.4684,196.17,81.1898 C199.971,79.6919,203.92,78.4799,207.704,76.9674" />
          </defs>
          <use
             xlink:href="#52"
             style="fill:#a9a9a9;fill-opacity:1;fill-rule:evenodd;opacity:1;stroke:none;"
             id="use325" />
        </g>
      </defs>
      <use
         xlink:href="#51"
         id="use330"
         style="fill:#ffffff;stroke:#ffffff;stroke-opacity:1" />
      <defs
         id="defs340">
        <title
           id="title332">Shape 16</title>
        <g
           id="53">
          <defs
             id="defs335">
            <path
               id="54"
               d="M160.421,93.0978 C162.188,92.7206,163.476,92.3792,164.928,92.0252 C166.455,91.6528,168.026,91.1258,169.528,90.6521 C171.649,89.9832,173.616,89.2841,175.715,88.5656 C179.265,87.35,182.704,86.2509,186.255,85.036 C189.553,83.9076,192.924,82.4684,196.17,81.1898 C199.971,79.6919,203.92,78.4799,207.704,76.9674" />
          </defs>
          <use
             xlink:href="#54"
             style="fill:none;opacity:1;stroke:#000000;stroke-linecap:square;stroke-linejoin:miter;stroke-miterlimit:10;stroke-opacity:1;stroke-width:5;"
             id="use337" />
        </g>
      </defs>
      <use
         xlink:href="#53"
         id="use342"
         style="fill:#ffffff;stroke:#ffffff;stroke-opacity:1" />
    </g>
    <g
       id="55"
       style="fill:#ffffff;stroke:#ffffff;stroke-opacity:1">
      <title
         id="title345">Group</title>
      <defs
         id="defs355">
        <title
           id="title347">Shape 17</title>
        <g
           id="56"
           style="opacity:0;">
          <defs
             id="defs350">
            <path
               id="57"
               d="M169.528,90.6521 C167.458,92.7598,166.474,101.276,166.918,104.932 C167.543,110.076,169.481,114.545,172.733,118.694 C174.639,121.126,176.076,123.509,178.467,124.982 C178.811,125.194,180.46,126.38,181.005,126.674 C182.967,127.735,184.517,128.322,186.505,128.51 C187.405,128.595,189.815,128.495,190.7,128.286 C193.133,127.71,194.707,127.004,196.942,125.517 C200.652,123.049,201.746,121.908,203.64,119.765 C203.64,119.765,205.18,117.809,205.18,117.809 C205.866,116.711,206.692,115.418,207.054,114.651 C207.982,112.685,208.614,111.075,209.29,109.009 C211.29,102.893,211.313,95.4242,207.81,89.8502 C205.62,86.3666,201.029,83.0103,197.818,80.5597" />
          </defs>
          <use
             xlink:href="#57"
             style="fill:#a9a9a9;fill-opacity:1;fill-rule:evenodd;opacity:1;stroke:none;"
             id="use352" />
        </g>
      </defs>
      <use
         xlink:href="#56"
         id="use357"
         style="fill:#ffffff;stroke:#ffffff;stroke-opacity:1" />
      <defs
         id="defs367">
        <title
           id="title359">Shape 18</title>
        <g
           id="58">
          <defs
             id="defs362">
            <path
               id="59"
               d="M169.528,90.6521 C167.458,92.7598,166.474,101.276,166.918,104.932 C167.543,110.076,169.481,114.545,172.733,118.694 C174.639,121.126,176.076,123.509,178.467,124.982 C178.811,125.194,180.46,126.38,181.005,126.674 C182.967,127.735,184.517,128.322,186.505,128.51 C187.405,128.595,189.815,128.495,190.7,128.286 C193.133,127.71,194.707,127.004,196.942,125.517 C200.652,123.049,201.746,121.908,203.64,119.765 C203.64,119.765,205.18,117.809,205.18,117.809 C205.866,116.711,206.692,115.418,207.054,114.651 C207.982,112.685,208.614,111.075,209.29,109.009 C211.29,102.893,211.313,95.4242,207.81,89.8502 C205.62,86.3666,201.029,83.0103,197.818,80.5597" />
          </defs>
          <use
             xlink:href="#59"
             style="fill:none;opacity:1;stroke:#000000;stroke-linecap:butt;stroke-linejoin:miter;stroke-miterlimit:10;stroke-opacity:1;stroke-width:4;"
             id="use364" />
        </g>
      </defs>
      <use
         xlink:href="#58"
         id="use369"
         style="fill:#ffffff;stroke:#ffffff;stroke-opacity:1" />
    </g>
    <g
       id="60"
       style="fill:#ffffff;stroke:#ffffff;stroke-opacity:1">
      <title
         id="title372">Group</title>
      <defs
         id="defs382">
        <title
           id="title374">Shape 19</title>
        <g
           id="61">
          <defs
             id="defs377">
            <path
               id="62"
               d="M201.267,78.074 C201.035,77.0141,200.497,76.1179,200.113,75.1162 C199.392,73.2398,198.782,71.4727,197.39,69.9476 C196.932,69.4455,196.854,68.5325,196.169,68.2157 C195.787,68.0389,194.866,68.4919,194.444,68.5462 C192.575,68.7867,190.758,69.1026,188.971,69.72 C183.196,71.7147,176.962,72.816,171.42,75.3889 C170.363,75.8796,169.198,76.4396,168.086,76.7778 C167.491,76.9585,166.604,77.0461,166.22,77.6085 C166.122,77.7521,166.378,78.2466,166.445,78.4014 C166.736,79.0676,166.847,79.8905,167.011,80.602 C167.725,83.7015,168.717,86.6993,169.212,89.821" />
          </defs>
          <use
             xlink:href="#62"
             style="fill:#000000;fill-opacity:1;fill-rule:evenodd;opacity:1;stroke:none;"
             id="use379" />
        </g>
      </defs>
      <use
         xlink:href="#61"
         id="use384"
         style="fill:#ffffff;stroke:#ffffff;stroke-opacity:1" />
      <defs
         id="defs394">
        <title
           id="title386">Shape 20</title>
        <g
           id="63">
          <defs
             id="defs389">
            <path
               id="64"
               d="M201.267,78.074 C201.035,77.0141,200.497,76.1179,200.113,75.1162 C199.392,73.2398,198.782,71.4727,197.39,69.9476 C196.932,69.4455,196.854,68.5325,196.169,68.2157 C195.787,68.0389,194.866,68.4919,194.444,68.5462 C192.575,68.7867,190.758,69.1026,188.971,69.72 C183.196,71.7147,176.962,72.816,171.42,75.3889 C170.363,75.8796,169.198,76.4396,168.086,76.7778 C167.491,76.9585,166.604,77.0461,166.22,77.6085 C166.122,77.7521,166.378,78.2466,166.445,78.4014 C166.736,79.0676,166.847,79.8905,167.011,80.602 C167.725,83.7015,168.717,86.6993,169.212,89.821" />
          </defs>
          <use
             xlink:href="#64"
             style="fill:none;opacity:1;stroke:#000000;stroke-linecap:round;stroke-linejoin:miter;stroke-miterlimit:10;stroke-opacity:1;stroke-width:4;"
             id="use391" />
        </g>
      </defs>
      <use
         xlink:href="#63"
         id="use396"
         style="fill:#ffffff;stroke:#ffffff;stroke-opacity:1" />
    </g>
    <defs
       id="defs409">
      <title
         id="title399">Shape 9</title>
      <g
         id="65">
        <defs
           id="defs402">
          <path
             id="66"
             d="M191.344,222.824 C192.897,221.186,199.506,213.313,204.318,207.445 C208.791,201.99,214.971,191.424,216.347,189.481 C216.347,189.481,219.593,184.627,219.191,183.281 C218.832,182.077,217.64,181.564,216.552,181.372 C214.011,180.922,207.94,180.319,204.887,180.061 C201.552,179.779,188.193,178.918,188.193,178.918 C187.284,178.825,181.771,178.212,180.89,177.992 C178.753,177.457,174.843,175.916,174.843,175.209 C174.843,174.821,177.489,174.798,178.874,174.691 C180.499,174.565,188.704,174.311,189.962,174.269 C198.032,173.999,201.026,173.927,207.889,173.452 C212.727,173.117,218.761,172.897,221.952,174.167 C223.058,174.606,224.096,175.085,224.872,175.999 C226.335,177.723,227.003,180.127,227.678,181.892 C228.444,183.896,229.526,187.83,230.205,189.794 C231.141,192.508,231.813,194.944,232.669,197.366 C234.636,202.931,235.381,205.214,236.89,211.059 C238.43,217.03,239.968,221.967,240.961,226.081" />
        </defs>
        <use
           xlink:href="#66"
           style="fill:#a9a9a9;fill-opacity:1;fill-rule:evenodd;opacity:0;stroke:none;"
           id="use404" />
        <use
           xlink:href="#66"
           style="fill:none;opacity:1;stroke:#000000;stroke-linecap:round;stroke-linejoin:miter;stroke-miterlimit:10;stroke-opacity:1;stroke-width:4;"
           id="use406" />
      </g>
    </defs>
    <use
       xlink:href="#65"
       id="use411"
       style="fill:#ffffff;stroke:#ffffff;stroke-opacity:1" />
    <defs
       id="defs423">
      <title
         id="title413">Shape 33</title>
      <g
         id="67">
        <defs
           id="defs416">
          <path
             id="68"
             d="M171.349,189.418 C170.802,183.818,167.543,177.754,164.69,170.869 C163.899,168.96,162.052,165.397,161.228,163.223 C160.381,160.99,159.877,158.705,160.568,156.655 C160.568,156.655,165.997,146.341,167.92,142.909 C169.239,140.554,171.478,136.131,173.107,133.97 C175.11,131.314,179.316,126.706,179.68,126.954 C180.026,127.006,180.176,130.375,180.665,131.795 C182.19,136.224,186.251,139.049,189.211,142.528 C194.543,148.794,201.213,154.232,208.056,158.909 C213.724,162.784,219.524,165.919,225.319,170.242 C226.048,170.786,227.284,172.095,228.09,173.626" />
        </defs>
        <use
           xlink:href="#68"
           style="fill:#a9a9a9;fill-opacity:1;fill-rule:evenodd;opacity:0;stroke:none;"
           id="use418" />
        <use
           xlink:href="#68"
           style="fill:none;opacity:1;stroke:#000000;stroke-linecap:round;stroke-linejoin:round;stroke-miterlimit:10;stroke-opacity:1;stroke-width:4;"
           id="use420" />
      </g>
    </defs>
    <use
       xlink:href="#67"
       id="use425"
       style="fill:#ffffff;stroke:#ffffff;stroke-opacity:1" />
  </g>
</svg>
